<svg width="62" height="58" viewBox="0 0 62 58" fill="none" xmlns="http://www.w3.org/2000/svg">
<path fill-rule="evenodd" clip-rule="evenodd" d="M30.233 0.00534264C27.4965 0.0719211 24.7966 0.468294 22.1846 1.18694C21.9512 1.25117 21.5287 1.37314 21.3837 1.41819C21.3475 1.42942 21.2641 1.4552 21.1983 1.47549C21.0573 1.51898 21.0241 1.5294 20.8815 1.57463C20.7548 1.6149 20.1861 1.80499 20.0955 1.83738C20.061 1.84973 20.0005 1.87117 19.961 1.88504C19.9216 1.89891 19.8718 1.91664 19.8504 1.92444C19.8291 1.93225 19.743 1.96348 19.6592 1.99384C19.5754 2.0242 19.4866 2.05675 19.462 2.06619C19.4373 2.07563 19.3701 2.10097 19.3125 2.12251C18.9582 2.25519 18.4202 2.47057 18.129 2.59634C18.1143 2.60273 18.047 2.63145 17.9796 2.66018C17.649 2.8011 17.1498 3.02729 16.823 3.18419C16.4647 3.35627 15.9775 3.6006 15.7202 3.73733C15.6495 3.77488 15.5567 3.82421 15.514 3.84696C15.313 3.9539 14.8202 4.22718 14.7625 4.26378C14.7502 4.27155 14.7374 4.2779 14.7374 4.2779C14.7374 4.2779 14.6761 4.31211 14.6044 4.35392C14.5326 4.39573 14.4645 4.43534 14.453 4.44192C14.3937 4.47582 14.1383 4.6284 14.0555 4.67929C14.0325 4.69345 13.9841 4.72298 13.9479 4.74494C13.8467 4.80638 13.8304 4.81643 13.7102 4.89169C13.4709 5.04158 13.2767 5.16549 13.147 5.25098C13.0018 5.34673 12.5107 5.67819 12.4237 5.73914C12.3745 5.77371 12.3099 5.81878 12.2803 5.83929C12.2297 5.87439 11.9162 6.09944 11.7837 6.19583C11.4272 6.45512 10.8229 6.92472 10.4931 7.19866C10.2778 7.37748 10.1759 7.46255 10.1733 7.46562C10.1717 7.46756 10.1461 7.48945 10.1165 7.51426C10.087 7.53907 10.056 7.56519 10.0477 7.57229C9.75147 7.82862 9.75222 7.82794 9.53974 8.0179C9.36018 8.17836 9.13512 8.38508 9.00173 8.51191C8.98037 8.53218 8.93881 8.57172 8.90932 8.5996C8.61991 8.87375 8.19186 9.3003 7.92584 9.5796C7.83873 9.6711 7.7632 9.75034 7.75801 9.75566C7.74959 9.76428 7.70101 9.81632 7.59716 9.92809C7.55347 9.97507 7.40407 10.1381 7.37625 10.1691C7.36436 10.1824 7.33858 10.211 7.31896 10.2327C7.26167 10.2961 7.18869 10.3779 7.16332 10.4072C7.1504 10.4222 7.13828 10.4357 7.13636 10.4374C7.13332 10.44 7.05606 10.5281 7.01208 10.579C7.00345 10.5891 6.97731 10.6189 6.954 10.6454C6.87649 10.7333 6.59155 11.0699 6.51015 11.1697C6.50472 11.1763 6.46243 11.2279 6.41619 11.2841C6.31635 11.4057 6.17503 11.5813 6.096 11.6819C5.98343 11.8252 5.92567 11.8991 5.91421 11.9146C5.9078 11.9233 5.87543 11.9653 5.84228 12.0081C5.75557 12.1198 5.71129 12.1783 5.56269 12.378C5.43863 12.5448 5.3738 12.6332 5.2616 12.789C5.17079 12.9151 5.1611 12.9286 5.13745 12.9629C5.12431 12.9819 5.0908 13.0296 5.063 13.0689C5.0352 13.1082 5.00131 13.1566 4.98767 13.1765C4.97403 13.1964 4.92455 13.2683 4.87769 13.3362C4.74337 13.531 4.41294 14.0326 4.30318 14.2083C4.28205 14.2421 4.25536 14.2847 4.24385 14.303C4.20856 14.3591 4.04285 14.6272 4.02478 14.6575C3.79571 15.0414 3.64561 15.2968 3.59697 15.3854C3.58877 15.4003 3.57584 15.4233 3.56822 15.4366C3.54285 15.4807 3.40339 15.7313 3.38035 15.7741C3.36786 15.7973 3.34993 15.8305 3.3405 15.8479C3.33108 15.8653 3.31491 15.8951 3.30461 15.9142C3.29428 15.9333 3.27984 15.9598 3.2725 15.9729C3.26515 15.9862 3.24843 16.0175 3.23533 16.0423C3.22224 16.0671 3.18715 16.1336 3.15736 16.19C2.99438 16.4983 2.75801 16.9736 2.60743 17.2959C2.58963 17.334 2.56295 17.391 2.54817 17.4224C2.52419 17.4735 2.45694 17.6214 2.42069 17.7026C2.4133 17.7193 2.39923 17.7505 2.38942 17.772C2.33241 17.8972 2.1715 18.2701 2.11895 18.3988C2.10474 18.4336 2.07255 18.5122 2.04743 18.5736C1.9417 18.8316 1.79907 19.1969 1.73913 19.3631C1.72658 19.3979 1.69833 19.4752 1.67636 19.5348C1.55175 19.8733 1.38463 20.3675 1.27796 20.7131C1.26824 20.7445 1.25393 20.7907 1.24615 20.8155C1.2292 20.8698 1.12345 21.2244 1.08887 21.3429C1.06259 21.433 0.969736 21.7714 0.938416 21.8913C0.883519 22.1015 0.862228 22.1855 0.819201 22.3615C0.700063 22.8488 0.606692 23.2776 0.51145 23.7747C0.305503 24.8498 0.150956 26.0393 0.0748831 27.1347C0.0698144 27.2076 0.0630422 27.3052 0.0598264 27.3516C0.0490195 27.5076 0.0288821 27.8978 0.0212611 28.099C0.0195038 28.1454 0.0165869 28.2213 0.0147818 28.2677C0.00650329 28.4808 0.000113566 28.8268 5.9766e-05 29.0648L0 29.3255C0.778916 29.7959 1.37151 30.0206 2.17144 29.9967C2.90607 29.9858 3.70289 29.7547 4.32753 29.3255L4.32759 29.2305C4.32789 28.7512 4.35994 27.9149 4.39647 27.433C4.50419 26.0125 4.69065 24.8156 5.01449 23.4659C5.03449 23.3826 5.12246 23.0444 5.16462 22.8888C5.17969 22.8331 5.25596 22.5646 5.27503 22.5C5.28384 22.4702 5.29457 22.4336 5.29885 22.4187C5.30877 22.3841 5.37667 22.1624 5.38467 22.1384C5.38799 22.1285 5.41137 22.0553 5.43661 21.9757C5.58689 21.5022 5.80236 20.9115 6.00712 20.4118C6.12974 20.1124 6.31807 19.6833 6.45679 19.3871C6.47464 19.349 6.50382 19.2867 6.52162 19.2486C6.57982 19.124 6.84754 18.5857 6.91883 18.45C6.95713 18.3771 7.00203 18.2917 7.0186 18.2601C7.04587 18.2084 7.16144 17.9945 7.2027 17.9197C7.21819 17.8915 7.3581 17.6422 7.38275 17.5987C7.45037 17.4796 7.53834 17.3286 7.61531 17.1995C7.68596 17.0808 7.83205 16.8407 7.85723 16.8016C7.86472 16.7901 7.90911 16.7195 7.95588 16.645C8.06009 16.4788 8.06017 16.4787 8.2261 16.2261C8.3993 15.9625 8.50797 15.8017 8.64572 15.6054C8.66901 15.5722 8.69205 15.5391 8.69691 15.5319C8.72657 15.4883 8.91518 15.2259 8.98632 15.1295C9.03257 15.0667 9.08661 14.993 9.10639 14.9658C9.13789 14.9223 9.18833 14.8554 9.35146 14.6407C9.44807 14.5135 9.70857 14.1816 9.80534 14.0624C9.95189 13.882 10.0562 13.7553 10.1849 13.6014C10.2251 13.5533 10.2708 13.4991 10.2865 13.4809C10.3744 13.3781 10.4875 13.2464 10.5011 13.2307C10.5098 13.2207 10.5358 13.1909 10.5589 13.1645C10.5818 13.1379 10.6131 13.1027 10.6281 13.0862C10.6432 13.0696 10.6969 13.0099 10.7475 12.9535C11.2014 12.4481 11.8478 11.8007 12.3221 11.3766C12.3352 11.3648 12.3742 11.3298 12.4087 11.2986C12.4432 11.2674 12.4795 11.2348 12.4894 11.2262C12.4993 11.2175 12.5331 11.1877 12.5645 11.1599C12.5959 11.1321 12.6389 11.094 12.6602 11.0754C12.7047 11.0361 12.8975 10.8703 12.9499 10.8261C12.9695 10.8096 12.9885 10.7933 12.9921 10.79C12.9957 10.7866 13.0102 10.7744 13.0245 10.7628C13.0387 10.7512 13.083 10.7145 13.1228 10.6812C13.4057 10.445 13.7764 10.1514 14.0974 9.90926C14.2445 9.79816 14.4251 9.66392 14.449 9.64778C14.4563 9.64288 14.49 9.61846 14.5238 9.59354C14.5576 9.5687 14.5912 9.54429 14.5985 9.5393C14.6058 9.53432 14.6382 9.51134 14.6707 9.48811C15.0067 9.24741 15.4307 8.9595 15.7799 8.73477C15.8408 8.69566 15.904 8.65494 15.9204 8.64429C16.0443 8.56403 16.5182 8.27289 16.6706 8.18342C16.7982 8.10847 16.9011 8.0486 16.9259 8.03472C16.9417 8.02597 16.9908 7.9979 17.0352 7.97235C17.0796 7.9468 17.1549 7.90416 17.2026 7.87759C17.2502 7.85103 17.2993 7.82361 17.3114 7.81665C17.3834 7.77576 17.7168 7.59613 17.878 7.51142C17.9848 7.45528 18.6339 7.1286 18.6386 7.1286C18.6386 7.1286 18.6856 7.10733 18.7394 7.08133C18.7933 7.05533 18.8521 7.02711 18.8702 7.01861C18.8883 7.01011 18.9295 6.9907 18.962 6.97547C18.9943 6.96025 19.0224 6.94779 19.0224 6.94779C19.0224 6.94779 19.056 6.93275 19.0951 6.91437C19.1888 6.87027 19.1897 6.86983 19.3753 6.78713C19.8846 6.56018 20.3379 6.37366 20.8666 6.17352C20.957 6.1393 21.0498 6.10454 21.0728 6.09628C21.0959 6.08802 21.1402 6.07168 21.1714 6.05996C21.6961 5.86319 22.6229 5.56631 23.2695 5.38792C23.5974 5.29742 23.8529 5.23092 24.1391 5.16155C25.9169 4.7307 27.6795 4.47265 29.4948 4.37749C29.9687 4.35266 30.2639 4.34428 30.8097 4.34022C32.1509 4.33022 33.3897 4.40331 34.7129 4.5705C34.8746 4.59093 34.9301 4.59842 35.1612 4.63108C35.8996 4.73539 36.7388 4.89065 37.4839 5.06081C37.9943 5.1774 38.5927 5.33103 39.0046 5.45131C39.044 5.46283 39.1167 5.48398 39.166 5.49831C39.6567 5.6409 40.3693 5.87381 40.8068 6.03461C40.8281 6.04246 40.8752 6.05979 40.9113 6.07311C40.9475 6.08642 41.004 6.10722 41.0369 6.11931C41.0952 6.14077 41.1554 6.16367 41.3686 6.24554C41.6983 6.3721 42.1549 6.56023 42.4774 6.70233C43.0362 6.94853 43.5219 7.17996 44.0106 7.43277C44.2494 7.55631 44.2771 7.57096 44.4708 7.67563C44.6322 7.76282 44.6551 7.77548 44.79 7.85133C44.8553 7.88806 44.911 7.91811 44.911 7.91811C44.911 7.91811 44.9234 7.92444 44.9357 7.93217C44.9479 7.93989 44.9728 7.95441 44.9909 7.96443C45.0089 7.97443 45.0338 7.98846 45.0461 7.99557C45.0585 8.00269 45.0779 8.01394 45.0895 8.02057C45.101 8.02719 45.1198 8.03804 45.1313 8.04467C45.1816 8.07362 45.1958 8.08195 45.2807 8.13191C45.43 8.21973 45.8607 8.4809 45.9173 8.5179C45.9288 8.52542 46.0041 8.57349 46.0846 8.62461C46.3764 8.80996 46.7407 9.05293 47.0051 9.23854C47.043 9.26516 47.0887 9.29701 47.1068 9.30951C47.1249 9.32193 47.1827 9.36316 47.2353 9.40109C47.2879 9.43911 47.3369 9.47417 47.3441 9.47915C47.403 9.51954 47.7214 9.75778 47.9938 9.96535C48.0791 10.0304 48.5624 10.4153 48.5712 10.4254C48.5729 10.4272 48.6119 10.4597 48.6579 10.4978C48.9764 10.7604 49.3686 11.1033 49.677 11.3889C49.7441 11.4509 49.878 11.5757 49.8947 11.5916C49.8983 11.595 49.9308 11.6261 49.9669 11.6607C50.3789 12.0541 50.7961 12.4768 51.1718 12.8812C51.2322 12.9462 51.3083 13.0295 51.3892 13.1191C51.4088 13.1407 51.4262 13.1598 51.4281 13.1614C51.4298 13.1631 51.4648 13.2024 51.5056 13.2489C51.5465 13.2952 51.5828 13.336 51.5863 13.3393C51.6307 13.381 52.0741 13.9044 52.3163 14.2011C52.3853 14.2856 52.5843 14.5372 52.6881 14.6712C52.8215 14.8434 53.0224 15.1119 53.1616 15.304C53.1735 15.3206 53.1942 15.349 53.2075 15.3673C53.2365 15.4072 53.3702 15.5968 53.4516 15.7138C53.5069 15.7933 53.5258 15.8207 53.6075 15.9404C53.7443 16.1409 53.9907 16.5211 54.1482 16.7745C54.4154 17.205 54.7079 17.7132 54.9564 18.1788C55.1023 18.4522 55.3362 18.9154 55.4433 19.1431C55.541 19.3508 55.602 19.4826 55.6441 19.5771C55.6589 19.6102 55.6791 19.655 55.689 19.6765C55.7147 19.7326 55.8332 20.0051 55.866 20.0833C55.8812 20.1198 55.8962 20.155 55.8993 20.1616C55.9048 20.1733 55.9623 20.3124 56.0052 20.4178C56.0363 20.4941 56.1301 20.7312 56.1578 20.8035C56.1711 20.8383 56.1892 20.8858 56.1981 20.9089C56.2658 21.086 56.395 21.4432 56.4402 21.578C56.4457 21.5945 56.4781 21.6908 56.512 21.7919C56.8827 22.8951 57.1639 24.0431 57.3485 25.207C57.5148 26.2558 57.6008 27.1403 57.646 28.2677C57.661 28.6406 57.6546 29.7547 57.6358 30.0607C57.6343 30.0856 57.6315 30.1398 57.6296 30.1813C57.559 31.7017 57.3061 33.3104 56.8998 34.8249C56.7146 35.515 56.4409 36.3676 56.216 36.9554C56.1431 37.1462 56.1163 37.2148 56.0542 37.3718C55.961 37.6069 55.8392 37.9011 55.7736 38.0493C55.7678 38.0625 55.7416 38.1222 55.7152 38.1819C55.5374 38.5862 55.2536 39.1794 55.0709 39.5289C54.972 39.7182 54.9503 39.759 54.8309 39.9809C54.5379 40.5249 54.1188 41.2217 53.7398 41.795C53.5941 42.0151 53.3921 42.3116 53.3197 42.4114C53.3094 42.4254 53.2626 42.4911 53.2154 42.5574C53.1683 42.6237 53.1068 42.7091 53.0788 42.7472C52.9906 42.8673 52.7962 43.1289 52.7764 43.154C52.7659 43.1673 52.7146 43.2337 52.6624 43.3017C52.5708 43.4208 52.4702 43.5498 52.4297 43.6C52.419 43.6132 52.3677 43.677 52.3156 43.7417C52.2636 43.8063 52.1997 43.8849 52.1738 43.9165C52.1478 43.9479 52.1221 43.9791 52.1166 43.9858C52.0917 44.0166 51.9869 44.1428 51.9842 44.1454C51.9825 44.1471 51.949 44.1864 51.9097 44.2328C51.828 44.3292 51.7308 44.4424 51.6767 44.504C51.5629 44.6339 51.4036 44.8126 51.3115 44.9139C51.2932 44.9341 51.1941 45.0419 51.1645 45.074C50.8815 45.3809 50.4488 45.8222 50.1401 46.1193C49.9697 46.283 49.9252 46.3252 49.7936 46.4481C49.7673 46.4726 49.7428 46.4955 49.7392 46.4988C49.7061 46.5299 49.6047 46.6221 49.5037 46.713C49.4363 46.7737 49.3675 46.8358 49.3507 46.851C49.308 46.8897 49.2909 46.9048 49.1928 46.9899C49.1452 47.0313 49.1049 47.0665 49.1032 47.0683C49.1015 47.07 49.0827 47.0863 49.0614 47.1044C49.04 47.1226 49.0212 47.139 49.0195 47.1409C49.0179 47.1428 48.9264 47.2198 48.8163 47.3121C48.7061 47.4043 48.6093 47.4855 48.6011 47.4926C48.5694 47.5196 48.3578 47.6906 48.272 47.7585C48.2385 47.785 48.1943 47.8203 48.1736 47.8369C48.153 47.8534 48.123 47.877 48.1071 47.8893C48.0911 47.9015 48.0458 47.9368 48.0063 47.9677C47.9174 48.0372 47.5137 48.3416 47.4385 48.3957C47.4253 48.4052 47.3898 48.4311 47.3594 48.4534C47.311 48.4888 47.2429 48.5379 47.1733 48.5876C47.1613 48.5961 47.1328 48.6162 47.1098 48.6323C47.0868 48.6484 47.0423 48.6797 47.0112 48.7018C46.7697 48.8728 46.2653 49.2107 46.0578 49.3406C46.0413 49.3509 46.0165 49.3666 46.0026 49.3756C45.9887 49.3844 45.9565 49.4047 45.9309 49.4206C45.9053 49.4364 45.8481 49.472 45.8037 49.4996C45.574 49.6427 45.1277 49.9084 44.9517 50.0069C44.9354 50.016 44.8885 50.0425 44.8473 50.0656C44.8063 50.0889 44.7579 50.1159 44.7398 50.1257C44.7217 50.1356 44.7016 50.1469 44.6949 50.151C44.6884 50.155 44.6588 50.1714 44.6292 50.1873C44.5996 50.2033 44.5471 50.2317 44.5126 50.2507C44.4782 50.2697 44.4203 50.3008 44.3842 50.3199C44.348 50.339 44.2995 50.3648 44.2766 50.3772C44.0109 50.5207 43.4631 50.7925 43.1037 50.9593C42.08 51.4345 40.8383 51.9118 39.686 52.2728C39.6367 52.2883 39.5708 52.3091 39.5395 52.319C39.4434 52.3495 39.1514 52.4365 38.9568 52.4927C36.9429 53.0734 34.8568 53.4439 32.8331 53.5801C32.4962 53.6028 32.2559 53.6151 31.799 53.633C31.5366 53.6433 30.3426 53.6433 30.0746 53.633C29.3802 53.6063 28.9238 53.5766 28.3382 53.5199C27.5847 53.4468 26.8932 53.3488 26.0011 53.1887C25.8975 53.1701 25.7993 53.1526 25.7829 53.1497C25.751 53.144 25.54 53.104 25.3526 53.068C24.832 52.9679 24.0125 52.7799 23.5444 52.653C23.4701 52.6329 23.2662 52.576 23.1768 52.5505C23.0687 52.5197 23.0432 52.5134 22.9049 52.4843C22.6872 52.4383 22.6535 52.4308 22.5701 52.4104C22.287 52.3409 22.1072 52.2652 22.0201 52.1787C21.9844 52.1434 21.9715 52.1236 21.9529 52.0768C21.9103 51.969 21.907 51.9199 21.9041 51.3445C21.9027 51.0727 21.9 50.8435 21.8981 50.8352C21.8923 50.8095 21.8942 50.1873 21.9005 50.0759C21.9038 50.0178 21.9117 49.8849 21.9182 49.7805C21.9301 49.5919 21.9459 49.3006 21.9635 48.9489C21.9997 48.2267 22.0244 47.8416 22.0596 47.4542C22.1138 46.8554 22.1705 46.4815 22.3133 45.7787C22.4633 45.0408 22.5116 44.7813 22.5529 44.493L22.5664 44.3977L22.6535 44.4014C23.0347 44.4176 23.2128 44.4293 23.5354 44.4592C23.8605 44.4893 24.1678 44.5242 24.964 44.6215C25.7949 44.7231 26.373 44.7677 27.2414 44.7974C27.5127 44.8066 28.3672 44.8066 28.6281 44.7973C29.4137 44.7695 29.9794 44.7224 30.7052 44.6247C31.7196 44.4881 32.8116 44.2214 33.6818 43.8974C33.9299 43.8051 34.257 43.6719 34.423 43.5954C34.4411 43.5871 34.4694 43.5742 34.4858 43.5669C34.5022 43.5594 34.5359 43.5439 34.5605 43.5323C34.5852 43.5206 34.6202 43.5043 34.6382 43.4961C34.81 43.4168 35.117 43.2572 35.3227 43.1404C35.4045 43.0938 35.6155 42.968 35.7261 42.8996C35.902 42.791 36.1843 42.5954 36.3889 42.4403C36.4659 42.3821 36.536 42.3289 36.5448 42.3223C36.5853 42.2918 36.7766 42.1356 36.8259 42.0927C36.8341 42.0855 36.8623 42.0611 36.8887 42.0385C36.915 42.0158 36.9378 41.9957 36.9394 41.994C36.9411 41.9923 36.9533 41.9816 36.9663 41.9703C37.191 41.7779 37.5837 41.3832 37.8181 41.1143C37.8395 41.0898 37.8597 41.0668 37.8629 41.0632C37.8663 41.0597 37.8852 41.0377 37.9048 41.0145C37.9245 40.9914 37.9443 40.9685 37.9488 40.9637C37.9668 40.9445 38.1068 40.7744 38.1699 40.695C38.2067 40.6486 38.2499 40.5944 38.2657 40.5746C38.321 40.5051 38.5643 40.1762 38.6201 40.0954C38.6351 40.0738 38.6681 40.0264 38.6937 39.9899C38.8232 39.805 39.0816 39.4032 39.2288 39.1582C39.2999 39.0398 39.4557 38.7729 39.4872 38.7153C39.4953 38.7003 39.5082 38.6773 39.5158 38.6641C39.5473 38.6091 39.6292 38.4604 39.6292 38.4582C39.6292 38.4582 39.6355 38.4458 39.6431 38.4333C39.6507 38.421 39.6726 38.381 39.6916 38.3446C39.7106 38.3081 39.7282 38.2756 39.7307 38.2723C39.7331 38.2689 39.7519 38.2337 39.7726 38.1939C39.7933 38.1541 39.8224 38.0985 39.8374 38.0704C39.9532 37.8524 40.2847 37.1847 40.4283 36.8801C40.5794 36.5594 40.7334 36.2276 40.8538 35.963C40.8897 35.884 40.9272 35.8017 40.937 35.7801C40.9468 35.7586 40.9648 35.7193 40.977 35.6928C40.9892 35.6663 41.0228 35.593 41.0517 35.5301C41.2204 35.1615 41.471 34.6252 41.5869 34.385C41.6188 34.3187 41.6578 34.2373 41.6735 34.2042C41.8291 33.8744 42.2399 33.0609 42.4095 32.747C42.4287 32.7112 42.4446 32.6795 42.4446 32.6795C42.4446 32.6795 42.4535 32.6613 42.4645 32.642C42.4756 32.6228 42.4986 32.5804 42.5158 32.5477C42.533 32.515 42.5526 32.4784 42.5593 32.4663C42.5702 32.447 42.6091 32.3759 42.6514 32.2983C42.6591 32.2842 42.6772 32.2517 42.6916 32.2259C42.706 32.2002 42.7244 32.167 42.7326 32.152C42.8188 31.9955 43.0437 31.6068 43.1668 31.4016C43.1966 31.352 43.2283 31.2991 43.2372 31.2841C43.4703 30.8931 43.876 30.2746 44.1656 29.8689C44.1806 29.8479 44.1969 29.8249 44.2018 29.8177C44.2068 29.8105 44.2197 29.7923 44.2306 29.7775C44.2415 29.7625 44.2697 29.7236 44.2933 29.691C44.3361 29.632 44.539 29.3624 44.5753 29.3164C44.5858 29.3032 44.6411 29.2326 44.6985 29.1597C44.7557 29.0868 44.8294 28.9944 44.8623 28.9543C44.8952 28.9144 44.9316 28.8699 44.943 28.8554C44.9545 28.8411 44.9667 28.8263 44.97 28.8227C44.9734 28.8191 45.0138 28.7714 45.0597 28.7167C45.1422 28.6184 45.2901 28.4469 45.3431 28.3881C45.3581 28.3713 45.3798 28.3469 45.3913 28.3338C45.7128 27.967 46.2631 27.4097 46.697 27.0116C46.7202 26.9903 46.7527 26.9605 46.7692 26.9453C46.7956 26.921 46.8661 26.8577 46.9185 26.8114C46.9284 26.8026 46.9714 26.765 47.0141 26.7277C47.0568 26.6905 47.1013 26.6515 47.1128 26.6412C47.1244 26.6309 47.1499 26.6089 47.1696 26.5924C47.1893 26.5759 47.2067 26.5609 47.2084 26.5591C47.2238 26.5418 47.6718 26.1756 47.8002 26.0751C48.2424 25.7293 48.5446 25.5199 49.145 25.1431C49.2256 25.0925 49.3008 25.0451 49.3124 25.0375C49.3239 25.0299 49.3804 24.9946 49.4379 24.959C49.4955 24.9233 49.556 24.8855 49.5724 24.8748C49.5888 24.8643 49.6466 24.8274 49.7009 24.7931C50.0029 24.6019 50.3838 24.3433 50.4797 24.2644C50.5306 24.2225 50.6245 24.1265 50.6607 24.0791C50.8049 23.8905 50.8949 23.6552 50.9072 23.4341C50.9188 23.227 50.8887 23.0599 50.8093 22.8902C50.7792 22.8259 50.7043 22.7047 50.6741 22.6717C50.6665 22.6633 50.6441 22.6376 50.6244 22.6146C50.4946 22.4628 50.2721 22.2651 50.0267 22.0838C49.8233 21.9335 49.422 21.6815 49.1077 21.5067C49.0922 21.498 49.0585 21.479 49.0331 21.4645C49.0075 21.45 48.9745 21.4313 48.9597 21.423C48.9449 21.4148 48.8898 21.3837 48.8372 21.3537C48.7846 21.3239 48.7257 21.2907 48.7065 21.2799C48.6872 21.2692 48.6581 21.2524 48.6419 21.2428C48.6258 21.2333 48.6103 21.2253 48.6103 21.2253C48.6103 21.2253 48.5876 21.2132 48.5626 21.1982C48.5375 21.1833 48.5148 21.1711 48.5148 21.1711C48.5148 21.1711 48.492 21.1589 48.4669 21.144C48.4419 21.1291 48.4194 21.1169 48.4194 21.1169C48.4194 21.1169 48.3912 21.102 48.3593 21.0837C48.3274 21.0655 48.299 21.0506 48.299 21.0506C48.299 21.0506 48.2838 21.0428 48.268 21.0335C48.2297 21.0107 47.9755 20.8738 47.8299 20.7975C47.6393 20.6976 47.2212 20.4901 47.032 20.4014C46.986 20.3797 46.9205 20.3488 46.8864 20.3327C46.8523 20.3165 46.8224 20.3033 46.8224 20.3033C46.8224 20.3033 46.7944 20.291 46.7627 20.2762C46.7311 20.2612 46.7032 20.249 46.7032 20.249C46.7012 20.249 46.6765 20.2378 46.5823 20.1942C46.5343 20.172 46.2573 20.0513 46.1893 20.0229C46.163 20.012 46.1079 19.9888 46.0667 19.9716C45.9542 19.9244 45.7937 19.8583 45.7499 19.8413C45.7285 19.833 45.6546 19.8036 45.5856 19.776C45.0364 19.5564 44.1768 19.2582 43.6217 19.0949C43.5808 19.0829 43.5258 19.0667 43.4995 19.0588C43.3225 19.0064 43.2573 18.9873 43.1887 18.9682C42.4157 18.7528 41.8428 18.6139 41.0399 18.4474C40.0149 18.2351 38.7403 18.0393 37.7595 17.9438C35.5579 17.7294 33.0588 17.7635 30.9316 18.0369C29.93 18.1657 29.0479 18.3247 28.137 18.5407C27.7074 18.6426 27.2992 18.7522 26.8289 18.8918C26.3758 19.0264 25.8508 19.2053 25.3247 19.4046C24.9209 19.5575 24.3555 19.8003 23.927 20.0049C23.8004 20.0654 23.4092 20.2615 23.3143 20.3121C23.2847 20.3278 23.2323 20.3557 23.1978 20.3741C23.1633 20.3924 23.1081 20.4223 23.0752 20.4406C23.0423 20.4588 22.9926 20.486 22.9646 20.5011C22.9367 20.5162 22.8941 20.5402 22.87 20.5545C22.8459 20.5688 22.8241 20.5805 22.8241 20.5805C22.8213 20.5805 22.602 20.7075 22.5493 20.7397C22.5262 20.7537 22.4724 20.7862 22.4297 20.8119C22.3259 20.8741 22.2771 20.9045 22.1168 21.006C22.0139 21.0712 21.9818 21.092 21.8361 21.1878C21.7616 21.2368 21.5934 21.3516 21.5316 21.3958C21.4882 21.4268 21.4444 21.4577 21.3982 21.4902C21.211 21.6212 20.8422 21.9034 20.6339 22.0746C20.5832 22.1164 20.5254 22.1639 20.5054 22.1802C20.4855 22.1966 20.4662 22.2129 20.4625 22.2164C20.4589 22.2199 20.4428 22.2336 20.4268 22.2469C20.3902 22.2773 20.3147 22.3418 20.3107 22.3461C20.3091 22.3479 20.2889 22.3657 20.2659 22.3855C20.2429 22.4054 20.216 22.4288 20.2061 22.4374C20.1688 22.4701 20.0076 22.6152 19.979 22.6419C19.8023 22.8069 19.7341 22.873 19.5456 23.062C19.3547 23.2534 19.2767 23.3348 19.1027 23.5239C19.0694 23.5601 18.9367 23.7096 18.8828 23.7717C18.8698 23.7867 18.788 23.8825 18.7362 23.9435C18.5979 24.1063 18.401 24.3561 18.2446 24.5672C18.2004 24.627 18.1581 24.6839 18.1506 24.6938C18.0458 24.8329 17.7422 25.2829 17.6536 25.4305C17.6472 25.4411 17.6106 25.5008 17.5723 25.563C17.4554 25.7533 17.3071 26.0115 17.2199 26.1765C17.2024 26.2096 17.1778 26.2557 17.1652 26.2789C17.133 26.3382 16.9003 26.8081 16.8653 26.8846C16.8493 26.9194 16.8163 26.9926 16.7919 27.0473C16.7675 27.102 16.7427 27.1576 16.7367 27.1708C16.7307 27.1841 16.7144 27.2221 16.7005 27.2552C16.6866 27.2883 16.6704 27.3264 16.6646 27.3396C16.6197 27.4403 16.4946 27.7593 16.4162 27.9724C16.3552 28.1383 16.2291 28.5133 16.183 28.6655C16.0687 29.044 15.9604 29.4498 15.8905 29.7624C15.8499 29.9441 15.8461 29.9615 15.8219 30.0788C15.6774 30.7777 15.5783 31.5083 15.5198 32.3057C15.5028 32.5371 15.4853 32.93 15.4806 33.1826C15.4748 33.4996 15.4801 34.1444 15.4902 34.3337C15.4919 34.3652 15.4973 34.4724 15.5023 34.5718C15.5538 35.6095 15.6799 36.5944 15.8844 37.555C15.8929 37.5948 15.904 37.6477 15.9091 37.6726C15.95 37.8709 16.0683 38.3722 16.1685 38.7725C16.2488 39.0929 16.2782 39.2082 16.3896 39.6403C16.4124 39.7285 16.4477 39.8666 16.4854 40.014C16.5458 40.2501 16.6369 40.6203 16.691 40.8488L16.746 41.0808L16.7665 41.0826L16.7872 41.0843L16.8163 40.968C16.905 40.6149 17.0778 40.1405 17.3219 39.5801C17.3378 39.5436 17.3649 39.4799 17.382 39.4384C17.3993 39.397 17.4208 39.3468 17.4297 39.327C17.4387 39.3071 17.4736 39.2257 17.5073 39.1462C17.541 39.0666 17.5746 38.988 17.582 38.9714C17.5893 38.9548 17.6042 38.9209 17.6149 38.896C17.6445 38.8273 17.6749 38.7583 17.6971 38.7093C17.7054 38.691 17.7249 38.6476 17.7405 38.6128C17.756 38.578 17.7917 38.4993 17.8198 38.438C17.8675 38.3336 17.8866 38.2927 17.9726 38.1096C18.025 37.9978 18.3136 37.4157 18.3683 37.311C18.4789 37.0998 18.5349 36.9939 18.6028 36.868C18.6422 36.7951 18.6832 36.7192 18.6939 36.6992C18.7222 36.6469 18.744 36.6075 18.7635 36.5743C18.7728 36.5582 18.7806 36.5422 18.7806 36.5422C18.7806 36.5422 18.7868 36.5292 18.7945 36.5168C18.8022 36.5045 18.818 36.4767 18.8297 36.4552C18.9184 36.2918 19.2194 35.779 19.3789 35.5198C19.4595 35.3887 19.5325 35.2709 19.5528 35.2392C19.565 35.2202 19.5833 35.191 19.5935 35.1745C19.6846 35.026 20.0334 34.4976 20.2023 34.2524C20.2114 34.2391 20.2522 34.1808 20.2928 34.1228C20.3336 34.0648 20.3744 34.0065 20.3835 33.9932C20.4 33.9693 20.4499 33.8997 20.5451 33.7679C20.7715 33.4546 21.1174 33.0017 21.3649 32.6944C21.4355 32.6068 21.4449 32.5952 21.5099 32.5162C21.5292 32.4927 21.554 32.4624 21.565 32.4487C21.576 32.435 21.5895 32.4186 21.5949 32.4121C21.6004 32.4056 21.6158 32.3872 21.6293 32.3711C21.7936 32.1746 22.0421 31.8846 22.1451 31.7693C22.1629 31.7495 22.1858 31.7237 22.196 31.712C22.224 31.6802 22.3813 31.5045 22.385 31.5012C22.3869 31.4995 22.4068 31.4778 22.4294 31.4529C22.8196 31.0242 23.3446 30.4891 23.7419 30.115C23.7895 30.0702 23.8472 30.0158 23.8702 29.994C23.944 29.9241 24.124 29.7592 24.2378 29.6571C24.2986 29.6025 24.3497 29.5563 24.3514 29.5544C24.353 29.5525 24.4149 29.4982 24.4889 29.4339C24.5628 29.3694 24.6247 29.3153 24.6263 29.3136C24.6326 29.3068 24.9681 29.0222 25.003 28.994C25.0173 28.9824 25.0535 28.9526 25.0833 28.9276C25.5079 28.5738 26.1051 28.1185 26.6257 27.7516C27.388 27.2142 28.206 26.7046 29.0166 26.2621C29.2446 26.1377 29.2151 26.1535 29.4469 26.0316C29.6107 25.9456 30.0208 25.7405 30.1896 25.6604C30.2168 25.6475 30.2625 25.6258 30.2913 25.6122C30.409 25.5563 30.457 25.5346 30.457 25.5346C30.457 25.5346 30.484 25.5227 30.5147 25.5082C30.6004 25.4678 30.652 25.4442 30.6542 25.4442C30.6542 25.4442 30.676 25.4349 30.7002 25.4236C30.748 25.4013 30.8083 25.3747 31.0399 25.2739C31.2309 25.1909 31.2331 25.1899 31.5151 25.0751C31.8769 24.928 32.1519 24.8232 32.5611 24.6767C32.7946 24.5932 33.3427 24.4139 33.5862 24.3413C33.9439 24.2349 34.2256 24.1563 34.5695 24.0671C34.6183 24.0544 34.8761 23.9913 34.964 23.9704C36.1453 23.6905 37.3957 23.4983 38.5892 23.4134C38.9638 23.3867 39.5586 23.3579 39.71 23.3592L39.7458 23.3595L39.686 23.3903C39.5391 23.4661 39.311 23.5658 39.1062 23.6437C38.831 23.7483 38.634 23.8144 38.0483 23.998C37.6786 24.1139 37.6394 24.1265 37.4624 24.1866C37.1976 24.2767 37.0437 24.3346 36.799 24.4366C36.7595 24.4531 36.6969 24.479 36.6598 24.4943C36.5848 24.5253 36.0672 24.7484 36.025 24.768C36.0101 24.7749 35.9375 24.8075 35.8636 24.8404C35.0991 25.1809 34.1477 25.6504 33.4249 26.0437C33.3871 26.0643 33.3346 26.0928 33.3083 26.1071C33.282 26.1214 33.2336 26.1479 33.2007 26.1662C33.1678 26.1844 33.1262 26.2075 33.1081 26.2173C33.09 26.2272 33.0523 26.2481 33.0244 26.2637C32.9964 26.2794 32.9547 26.3025 32.9317 26.3152C32.9087 26.3278 32.8603 26.355 32.8241 26.3756C32.788 26.3962 32.7449 26.4205 32.7285 26.4297C32.7121 26.4388 32.6812 26.4564 32.6598 26.4689C32.6383 26.4813 32.6108 26.4972 32.5985 26.5042C32.5861 26.5112 32.5666 26.5223 32.5551 26.529C32.4995 26.561 32.4875 26.568 32.4625 26.5821C32.3416 26.6506 31.9022 26.9114 31.7752 26.99C31.7472 27.0073 31.6665 27.0569 31.5958 27.1C31.5251 27.1432 31.4458 27.1922 31.4195 27.2088C31.3932 27.2256 31.3528 27.2507 31.3298 27.2648C31.3068 27.2789 31.2687 27.3028 31.2451 27.318C31.2216 27.3332 31.1813 27.3591 31.1555 27.3754C31.0036 27.472 30.9707 27.4931 30.9085 27.534C30.8706 27.5589 30.8101 27.5985 30.7739 27.6221C30.5595 27.7621 29.9831 28.1553 29.8474 28.2541C29.8265 28.2694 29.7517 28.3229 29.6981 28.3611C29.679 28.3746 29.4956 28.5074 29.45 28.5406C29.3439 28.618 29.2527 28.6861 29.0649 28.8282C28.8444 28.9951 28.8146 29.0179 28.6944 29.1115C28.6561 29.1413 28.616 29.1725 28.6053 29.1808C28.3843 29.3521 27.8925 29.7541 27.6866 29.9317C27.6784 29.9388 27.6045 30.0024 27.5223 30.0732C27.3966 30.1812 27.2429 30.316 27.1547 30.3956C27.1432 30.406 27.08 30.4629 27.0142 30.5221C26.7845 30.7288 26.6157 30.8866 26.3152 31.1756C26.2431 31.2449 25.8704 31.6143 25.8632 31.6236C25.8611 31.6263 25.7911 31.6981 25.7076 31.7833C25.5652 31.9284 25.4942 32.0024 25.365 32.1403C25.3356 32.1716 25.2938 32.2162 25.2719 32.2394C25.2118 32.3033 25.0181 32.5157 24.964 32.577C24.9377 32.6068 24.9148 32.6325 24.9129 32.6342C24.8991 32.6469 24.5713 33.023 24.4926 33.1163C24.4856 33.1247 24.4501 33.1667 24.4136 33.2098C24.3772 33.2528 24.2929 33.3546 24.2263 33.4357C24.1596 33.5169 24.1001 33.5894 24.0939 33.5968C24.0767 33.6174 23.9688 33.7527 23.9418 33.7875C23.9286 33.8045 23.8866 33.8577 23.8486 33.9058C23.6644 34.1382 23.2548 34.687 23.1424 34.852C23.1368 34.8603 23.1167 34.8889 23.0977 34.9156C22.8961 35.1997 22.6674 35.5413 22.447 35.8876C22.4211 35.9284 22.3928 35.9732 22.3844 35.987C22.3758 36.0009 22.3567 36.0312 22.3419 36.0544C22.3271 36.0776 22.3036 36.1155 22.2897 36.1388C22.2758 36.162 22.2508 36.2026 22.2342 36.2292C22.2008 36.2826 22.001 36.6173 21.9771 36.6601C21.9687 36.675 21.9276 36.7469 21.8858 36.8198C21.8081 36.9551 21.69 37.167 21.6438 37.2538C21.6296 37.2802 21.6162 37.3046 21.6138 37.308C21.6115 37.3113 21.5954 37.3411 21.5781 37.3743C21.5606 37.4075 21.5391 37.4481 21.5301 37.4647C21.5035 37.5138 21.4508 37.6139 21.3697 37.7697C21.2041 38.0878 20.9406 38.6331 20.7732 39.0038C20.7482 39.0588 20.7212 39.1189 20.7129 39.1372C20.6816 39.2063 20.5319 39.5479 20.5319 39.5503C20.5319 39.5503 20.5235 39.5711 20.5133 39.5935C20.4354 39.7649 20.1742 40.4109 20.0334 40.7805C19.9578 40.9792 19.8758 41.1986 19.8683 41.2225C19.8657 41.2307 19.855 41.2606 19.8445 41.2887C19.834 41.3169 19.8233 41.3467 19.8206 41.355C19.8179 41.3633 19.8072 41.3931 19.7967 41.4213C19.6508 41.8165 19.3987 42.5776 19.2237 43.151C19.0964 43.5681 18.9178 44.192 18.8312 44.5221C18.8121 44.5946 18.7967 44.6522 18.7836 44.6999C18.7759 44.7281 18.7569 44.8 18.7416 44.8596C18.7263 44.9193 18.7005 45.0196 18.6842 45.0826C18.4824 45.8673 18.3211 46.6004 18.1624 47.4542C18.0861 47.8653 17.9899 48.47 17.9286 48.9247C17.7965 49.903 17.718 50.7818 17.6716 51.7995C17.6588 52.0816 17.6461 52.6479 17.644 53.032C17.6408 53.6215 17.6112 54.1012 17.5489 54.5749C17.5256 54.7522 17.5216 54.9335 17.5394 55.0118C17.5609 55.1066 17.5868 55.143 17.6746 55.2019C17.7746 55.269 17.9437 55.3446 18.1827 55.4289C18.3552 55.4897 18.3838 55.501 18.6162 55.5993C18.8524 55.6992 19.3578 55.8985 19.45 55.9281C19.4582 55.9307 19.4878 55.9415 19.5158 55.952C19.5437 55.9625 19.5733 55.9734 19.5815 55.9761C19.5897 55.9788 19.6274 55.9925 19.6652 56.0063C19.703 56.0202 19.7447 56.0352 19.7579 56.0396C19.771 56.0439 19.8328 56.0655 19.8953 56.0876C20.0154 56.1301 20.3069 56.2302 20.3974 56.2601C20.427 56.2699 20.5481 56.3101 20.6664 56.3494C20.9548 56.4453 21.0994 56.4927 21.2283 56.5334C21.2874 56.5522 21.3425 56.5698 21.3508 56.5727C21.372 56.5801 21.5039 56.621 21.6227 56.6571C21.6786 56.674 21.7499 56.6958 21.7812 56.7053C21.9087 56.7445 22.3275 56.8634 22.5462 56.9224C22.5709 56.9291 22.626 56.9441 22.6687 56.9557C22.8018 56.992 23.3056 57.1184 23.4936 57.1626C25.442 57.6219 27.4135 57.8936 29.4021 57.977C29.795 57.9933 29.9291 57.9961 30.4964 57.9993C31.347 58.004 31.9646 57.9864 32.7644 57.9348C32.8136 57.9316 32.8984 57.9261 32.9526 57.9226C33.5977 57.881 34.4105 57.805 35.0507 57.7266C35.5588 57.6645 35.838 57.6251 36.4404 57.5309C36.5176 57.5188 36.9117 57.4522 36.9903 57.438C37.0166 57.4332 37.0758 57.4226 37.1218 57.4143C37.4691 57.352 37.9794 57.2501 38.2724 57.1846C38.2938 57.1798 38.3556 57.1662 38.4099 57.1543C38.4641 57.1423 38.5368 57.126 38.5713 57.118C38.6058 57.11 38.6919 57.09 38.7625 57.0736C38.8332 57.0572 38.9274 57.0351 38.9717 57.0246C39.1265 56.9877 39.6632 56.8505 39.8086 56.8106C39.8891 56.7885 39.9631 56.7683 39.9729 56.7656C40.0729 56.7397 40.4909 56.6195 40.6543 56.5697C40.6807 56.5617 40.7654 56.5359 40.8426 56.5124C41.2988 56.3734 41.9774 56.1449 42.4027 55.9872C42.5349 55.9381 42.6438 55.8973 42.6597 55.8907C42.6679 55.8874 42.7379 55.8607 42.8152 55.8315C42.986 55.767 43.3298 55.6304 43.5204 55.5511C43.6944 55.4788 43.7123 55.4714 43.7864 55.4399C43.8193 55.426 43.8677 55.4056 43.894 55.3946C43.9778 55.3596 44.2248 55.2516 44.2945 55.2196C44.3043 55.215 44.3487 55.1952 44.3931 55.1755C44.4375 55.1558 44.4912 55.1317 44.5126 55.1218C44.5541 55.1027 44.571 55.0949 44.6651 55.0522C44.698 55.0372 44.7566 55.0098 44.7954 54.9912C44.8343 54.9727 44.868 54.9576 44.868 54.9576C44.868 54.9576 44.9032 54.9417 44.9439 54.9221C44.9845 54.9027 45.0487 54.872 45.0865 54.8539C45.2597 54.7711 45.3961 54.7038 45.6484 54.5767C45.9565 54.4213 46.0569 54.3693 46.3297 54.2237C46.4586 54.1549 46.6393 54.0559 46.787 53.9734C46.8758 53.9237 46.9632 53.8749 46.9813 53.8648C46.9994 53.8548 47.0339 53.8348 47.058 53.8205C47.0821 53.8061 47.1039 53.7944 47.1039 53.7944C47.1071 53.7944 47.4677 53.5838 47.5581 53.5293C47.6008 53.5034 47.6734 53.4598 47.7194 53.4324C47.8026 53.3827 48.1167 53.1894 48.1737 53.1527C48.1902 53.1422 48.2332 53.1149 48.2693 53.0921C48.3055 53.0693 48.3526 53.0394 48.374 53.0257C48.3954 53.0118 48.4585 52.9712 48.5144 52.9354C48.7964 52.7545 49.2064 52.4781 49.4907 52.2776C49.5291 52.2505 49.5733 52.2194 49.589 52.2084C49.624 52.1837 49.6943 52.1334 49.7939 52.0617C49.8353 52.0319 49.8751 52.0033 49.8824 51.9984C49.8897 51.9935 49.9288 51.965 49.9693 51.9352C50.0589 51.8691 50.0883 51.8475 50.1412 51.8088C50.2032 51.7635 50.4709 51.5616 50.5581 51.4943C50.6005 51.4616 50.6422 51.4296 50.6508 51.4231C50.6593 51.4166 50.713 51.3745 50.7702 51.3297C50.8275 51.2848 50.8933 51.2333 50.9167 51.2152C51.0217 51.1338 51.3418 50.8735 51.5629 50.6898C51.584 50.6722 51.8492 50.4473 51.8647 50.4338C51.8729 50.4266 51.9307 50.3766 51.9932 50.3225C52.0943 50.2352 52.2614 50.0884 52.319 50.0364C52.3305 50.026 52.3682 49.992 52.4026 49.9609C52.4371 49.9298 52.4668 49.9029 52.4684 49.9012C52.47 49.8995 52.4835 49.8875 52.4983 49.8744C52.513 49.8615 52.5414 49.8358 52.5614 49.8172C52.5812 49.7987 52.6228 49.7605 52.6537 49.7323C52.8166 49.5838 53.0737 49.3408 53.2753 49.1449C53.387 49.0362 53.9287 48.4901 54.0376 48.3763C54.1606 48.2477 54.3193 48.0787 54.4169 47.9725C54.464 47.9211 54.5151 47.8655 54.5303 47.8489C54.6395 47.73 54.9015 47.4366 54.9555 47.3728C54.9667 47.3596 54.9774 47.3473 54.9792 47.3457C54.9945 47.3323 55.3472 46.9178 55.448 46.7948C55.4719 46.7657 55.4825 46.7531 55.506 46.7254C55.5129 46.7174 55.5308 46.6955 55.546 46.6768C55.5822 46.6321 55.7124 46.4721 55.7251 46.4567C55.7384 46.4407 55.9929 46.1196 56.0159 46.0899C56.0258 46.0771 56.046 46.0512 56.0607 46.0322C56.215 45.8343 56.4574 45.5126 56.6014 45.3145C56.6243 45.2831 56.6608 45.233 56.6826 45.2031C56.7168 45.1565 56.9017 44.8964 56.9275 44.8587C56.9324 44.8516 56.9551 44.819 56.9778 44.7864C57.0006 44.7538 57.0314 44.7094 57.0462 44.6879C57.0611 44.6663 57.0874 44.6283 57.1047 44.6035C57.1446 44.5463 57.5419 43.9478 57.5828 43.8832C57.5996 43.8567 57.6308 43.8079 57.652 43.7748C57.709 43.6857 57.8106 43.5238 57.8506 43.4584C57.8698 43.4269 57.8916 43.3916 57.8991 43.38C57.9371 43.3208 58.1637 42.9414 58.259 42.7774C58.2773 42.7459 58.2996 42.7079 58.3086 42.693C58.3175 42.678 58.3355 42.6468 58.3485 42.6237C58.3616 42.6005 58.3969 42.5384 58.4269 42.4859C58.457 42.4334 58.4815 42.3879 58.4815 42.3879C58.4815 42.3879 58.4878 42.3752 58.4954 42.3629C58.5031 42.3505 58.5175 42.3255 58.5274 42.3072C58.5373 42.2891 58.5709 42.228 58.6021 42.1716C58.6332 42.1153 58.6704 42.0475 58.6848 42.021C58.699 41.9945 58.7166 41.9619 58.7238 41.9487C58.887 41.6488 59.1655 41.1027 59.317 40.7855C59.4376 40.5329 59.4857 40.4296 59.4857 40.4296C59.4857 40.4296 59.4994 40.3984 59.5162 40.3626C59.5709 40.2456 59.6471 40.077 59.7078 39.9387C59.7405 39.8641 59.771 39.7949 59.7754 39.785C59.8903 39.5319 60.2354 38.6783 60.3372 38.3958C60.3413 38.3843 60.3682 38.311 60.397 38.2331C60.538 37.8507 60.694 37.3922 60.7885 37.0819C60.8022 37.0373 60.8157 36.9938 60.8186 36.9855C60.826 36.964 60.8621 36.8443 60.8867 36.7596C60.8983 36.7198 60.9212 36.6411 60.9377 36.5848C61.0151 36.32 61.1559 35.7763 61.2303 35.4547C61.6462 33.6573 61.8814 31.8044 61.984 29.5153C62.0066 29.0138 62.005 27.9553 61.9812 27.5144C61.9795 27.4845 61.9755 27.4059 61.9721 27.3396C61.963 27.1581 61.9363 26.7612 61.9244 26.6284C61.9211 26.5919 61.9115 26.4862 61.9032 26.3934C61.8407 25.7012 61.7321 24.9032 61.6072 24.2177C61.5257 23.7706 61.4271 23.2893 61.3478 22.9521C61.3362 22.9023 61.3198 22.8325 61.3116 22.7971C61.2189 22.3963 61.0391 21.723 60.9151 21.3128C60.8677 21.1556 60.8194 20.9977 60.798 20.9301C60.7859 20.892 60.7677 20.8336 60.7575 20.8005C60.7318 20.7169 60.5509 20.1728 60.5171 20.0773C60.4912 20.0039 60.4726 19.9514 60.439 19.8573C60.394 19.7308 60.3255 19.5418 60.3136 19.5107C60.3059 19.4908 60.2789 19.419 60.2536 19.351C60.2073 19.2268 60.0142 18.7336 59.9811 18.6549C59.9449 18.5688 59.9398 18.5569 59.9096 18.4832C59.8298 18.289 59.7251 18.0445 59.6494 17.8757C59.6415 17.8583 59.6351 17.8414 59.6351 17.8414C59.6351 17.8414 59.6272 17.8218 59.6175 17.8009C59.6078 17.78 59.5692 17.6951 59.5318 17.6122C59.3741 17.2632 59.048 16.5898 58.8983 16.3044C58.8775 16.2647 58.8428 16.1983 58.8212 16.1568C58.7996 16.1154 58.7732 16.0652 58.7624 16.0453C58.7517 16.0254 58.7294 15.9834 58.7129 15.9519C58.671 15.8723 58.5319 15.6176 58.4709 15.5089C58.4431 15.4592 58.4135 15.4063 58.4052 15.3914C58.3734 15.3343 58.2933 15.1937 58.2695 15.1534C58.2559 15.1301 58.2337 15.0921 58.2203 15.069C58.1024 14.8642 57.8652 14.47 57.7655 14.3126C57.754 14.2943 57.7385 14.2699 57.7312 14.2584C57.5069 13.9023 57.2363 13.4896 57.0812 13.2667C57.072 13.2536 57.0424 13.211 57.0154 13.1721C56.9884 13.1331 56.9461 13.0725 56.9215 13.0372C56.8968 13.0019 56.8661 12.9578 56.8533 12.9392C56.8404 12.9206 56.815 12.885 56.7969 12.8601C56.7628 12.8133 56.7541 12.8014 56.6931 12.7154C56.5548 12.5213 56.2282 12.086 56.0757 11.8925C56.0592 11.8716 56.0304 11.8347 56.0116 11.8104C55.9466 11.7264 55.6968 11.4131 55.6906 11.4076C55.6887 11.406 55.6764 11.3911 55.6634 11.3745C55.6503 11.358 55.6368 11.3414 55.6335 11.3379C55.6301 11.3342 55.618 11.3194 55.6065 11.3051C55.5637 11.2514 55.3344 10.9759 55.3257 10.9677C55.324 10.9661 55.3077 10.947 55.2897 10.9255C55.2375 10.8633 55.2367 10.8625 55.1247 10.7326C55.0021 10.5906 54.8642 10.4332 54.8205 10.3856C54.8051 10.3688 54.7178 10.2717 54.7099 10.2625C54.6939 10.2441 54.6003 10.1406 54.5631 10.1001C54.5431 10.0784 54.5069 10.0389 54.4826 10.0124C54.4583 9.98588 54.4206 9.94524 54.3989 9.92201C54.3771 9.89886 54.3366 9.85552 54.3089 9.8257C53.9624 9.4533 53.5049 8.99388 53.0333 8.5446C52.9429 8.45851 52.7404 8.27094 52.6297 8.17079C52.5952 8.13954 52.5641 8.11127 52.5605 8.10796C52.5527 8.10074 52.471 8.02737 52.4565 8.01454C52.4378 7.9981 52.3589 7.92727 52.3523 7.921C52.3488 7.91761 52.3109 7.88401 52.2681 7.84634C52.1291 7.72378 52.1013 7.69951 52.0347 7.6429C52.0184 7.62911 51.9984 7.61181 51.9902 7.60447C51.982 7.59712 51.9444 7.56504 51.9065 7.53317C51.8687 7.5013 51.8364 7.47369 51.8348 7.4718C51.8332 7.46992 51.7807 7.42558 51.7182 7.37329C51.6558 7.32098 51.5991 7.27341 51.5922 7.26756C51.5853 7.26172 51.5504 7.23298 51.5145 7.20371C51.4509 7.15183 51.4048 7.11381 51.3512 7.06918C51.3367 7.05711 51.3192 7.04332 51.3123 7.03854C51.3055 7.03377 51.2985 7.0283 51.2968 7.0264C51.2952 7.0245 51.2767 7.00942 51.2559 6.9929C51.235 6.97638 51.1934 6.94281 51.1633 6.91831C51.1332 6.89381 51.0951 6.86338 51.0787 6.8507C51.0622 6.838 51.0324 6.81466 51.0123 6.79881C50.9756 6.76976 50.7558 6.59849 50.6782 6.53842C50.6363 6.50603 50.4585 6.37193 50.2897 6.24548C50.2043 6.18146 50.1235 6.12257 49.9619 6.00653C49.922 5.97776 49.8825 5.94929 49.8744 5.94325C49.8662 5.93721 49.803 5.89238 49.7339 5.84364C49.6648 5.79489 49.5976 5.74743 49.5846 5.73817C49.3833 5.59461 48.852 5.2393 48.5563 5.05049C48.4708 4.99592 48.3874 4.94258 48.371 4.93197C48.3545 4.92137 48.2981 4.88611 48.2455 4.85362C48.1928 4.82114 48.1404 4.78836 48.1289 4.78077C48.1174 4.77319 48.069 4.74338 48.0213 4.71453C47.9736 4.68568 47.8876 4.63359 47.83 4.59877C47.7725 4.56396 47.6999 4.52043 47.6687 4.50206C47.6374 4.48368 47.589 4.45511 47.5611 4.43855C47.4317 4.36192 47.1186 4.18147 47.115 4.18147C47.115 4.18147 47.1025 4.17515 47.0903 4.16742C47.078 4.15969 47.0532 4.14522 47.0351 4.13527C47.017 4.12532 46.9807 4.10497 46.9544 4.09004C46.9281 4.07511 46.885 4.05125 46.8588 4.03702C46.8325 4.0228 46.7907 3.9997 46.7661 3.9857C46.7415 3.9717 46.6795 3.93783 46.6286 3.91043C46.5777 3.88302 46.5172 3.85046 46.4941 3.83807C46.2346 3.69831 45.9404 3.54542 45.735 3.44353C45.4701 3.31208 45.2269 3.19307 45.2269 3.19307C45.2269 3.19307 45.192 3.17717 45.1513 3.15774C45.1107 3.1383 45.0533 3.11086 45.0237 3.09676C44.9427 3.05813 44.5956 2.89776 44.5931 2.89776C44.5931 2.89776 44.5649 2.88555 44.5332 2.87064C44.5016 2.85572 44.4733 2.84351 44.4733 2.84351C44.4733 2.84351 44.451 2.83426 44.4267 2.82295C44.4024 2.81163 44.3345 2.78147 44.2757 2.75591C44.217 2.73035 44.1555 2.70334 44.1391 2.69588C44.1227 2.68843 44.0823 2.67096 44.0494 2.65706C44.0165 2.64316 43.9641 2.62066 43.9329 2.60706C43.9016 2.59345 43.8612 2.57626 43.8432 2.56886C43.8251 2.56146 43.7673 2.53734 43.7147 2.51523C43.5905 2.46307 43.1828 2.29746 43.102 2.26636C43.0675 2.25307 42.9962 2.22545 42.9436 2.20499C42.2302 1.9275 41.3979 1.64073 40.6364 1.41004C40.4615 1.35707 40.0568 1.23977 39.937 1.20737C39.9042 1.19847 39.8652 1.18744 39.8504 1.18285C39.7297 1.14545 38.9539 0.946672 38.7117 0.891116C38.6821 0.884324 38.6351 0.873324 38.6072 0.866675C38.2051 0.770998 37.6753 0.659766 37.1307 0.556738C36.6868 0.472754 36.066 0.372823 35.5587 0.303683C34.3009 0.132255 33.0947 0.0365376 31.7931 0.00485446C31.5175 -0.00184738 30.5157 -0.00154001 30.233 0.00534264ZM13.8892 43.112C13.5885 43.1487 13.31 43.2668 13.0524 43.467C12.9619 43.5374 12.7801 43.715 12.7158 43.7959C12.5604 43.9914 12.4653 44.1403 12.3521 44.3654C12.1495 44.768 12.0375 45.1574 11.9892 45.628C11.9785 45.7318 11.9786 46.1773 11.9894 46.2789C12.0613 46.9589 12.2929 47.5025 12.6777 47.894C12.8346 48.0538 12.9951 48.1719 13.1897 48.2711C13.6159 48.4883 14.1642 48.5611 14.6857 48.4696C14.9594 48.4216 15.2609 48.3199 15.5468 48.179C15.6291 48.1384 15.676 48.1136 15.783 48.0539C15.9574 47.9566 16.2002 47.7875 16.364 47.6493C16.8741 47.2188 17.1822 46.7309 17.2597 46.2307C17.2728 46.1459 17.2783 45.8656 17.2687 45.7687C17.2053 45.1268 16.8535 44.5268 16.2455 44.0237C15.8897 43.7293 15.4707 43.4891 15.0149 43.3182C14.5498 43.1439 14.1814 43.0764 13.8892 43.112ZM26.1087 45.4231C25.6424 45.4858 25.1672 45.6352 24.7279 45.857C24.6802 45.8811 24.6211 45.9123 24.5964 45.9264C24.5717 45.9405 24.5412 45.9579 24.5285 45.9651C24.062 46.2292 23.6397 46.618 23.3759 47.0263C23.2978 47.1471 23.2134 47.3041 23.1685 47.4119C23.1055 47.5632 23.0697 47.6688 23.0361 47.8023C22.9646 48.0867 22.9547 48.326 23.004 48.5822C23.0699 48.9249 23.2493 49.2736 23.5297 49.604C23.5912 49.6764 23.82 49.9024 23.9001 49.9697C24.3281 50.3296 24.8451 50.6013 25.3526 50.7329C25.7928 50.8471 26.1556 50.8517 26.563 50.7481C26.7294 50.7058 26.8704 50.6525 27.0262 50.5732C27.2394 50.4646 27.3961 50.3506 27.5645 50.1814C27.7982 49.9465 27.9734 49.6685 28.1002 49.3318C28.1846 49.1074 28.2385 48.8738 28.2703 48.5933C28.283 48.4817 28.2879 48.1456 28.2788 48.0192C28.2378 47.4508 28.0621 46.9025 27.7656 46.4176C27.7444 46.3828 27.712 46.3326 27.6938 46.3061C27.6756 46.2795 27.6501 46.2424 27.6372 46.2235C27.6243 46.2046 27.5891 46.1581 27.559 46.1202C27.2339 45.7099 26.8623 45.4721 26.4655 45.4202C26.3711 45.4079 26.2118 45.4092 26.1087 45.4231Z" fill="white"/>
</svg>
