<svg width="130" height="119" viewBox="0 0 130 119" fill="none" xmlns="http://www.w3.org/2000/svg">
<path fill-rule="evenodd" clip-rule="evenodd" d="M62.9772 0.0109574C57.277 0.147505 51.653 0.960439 46.212 2.43434C45.7257 2.56605 44.8457 2.81622 44.5436 2.90861C44.4682 2.93163 44.2945 2.98452 44.1575 3.02612C43.8638 3.11532 43.7945 3.1367 43.4976 3.22947C43.2335 3.31205 42.0489 3.70192 41.8603 3.76833C41.7884 3.79366 41.6623 3.83764 41.5801 3.86609C41.4979 3.89452 41.3943 3.93089 41.3498 3.9469C41.3052 3.96291 41.126 4.02695 40.9515 4.08922C40.7767 4.1515 40.5919 4.21826 40.5406 4.23761C40.4891 4.25697 40.3491 4.30895 40.2292 4.35311C39.4911 4.62523 38.3704 5.06696 37.7639 5.32491C37.7332 5.33801 37.593 5.39692 37.4527 5.45585C36.764 5.74486 35.7241 6.20875 35.0434 6.53055C34.2969 6.88348 33.2822 7.38457 32.7462 7.66501C32.5989 7.74202 32.4057 7.8432 32.3166 7.88984C31.8979 8.10916 30.8715 8.66965 30.7512 8.74471C30.7256 8.76065 30.7022 8.77367 30.699 8.77367C30.6959 8.77367 30.5713 8.84384 30.4219 8.92959C30.2723 9.01534 30.1306 9.09657 30.1065 9.11007C29.9831 9.1796 29.4509 9.49252 29.2785 9.5969C29.2307 9.62594 29.1298 9.6865 29.0544 9.73153C28.8436 9.85755 28.8097 9.87817 28.5592 10.0325C28.0608 10.3399 27.6562 10.5941 27.386 10.7694C27.0835 10.9658 26.0606 11.6456 25.8794 11.7706C25.7768 11.8415 25.6422 11.9339 25.5806 11.976C25.4752 12.048 24.8222 12.5095 24.5463 12.7072C23.8037 13.239 22.5447 14.2021 21.8578 14.7639C21.4094 15.1307 21.197 15.3052 21.1916 15.3115C21.1882 15.3154 21.135 15.3603 21.0734 15.4112C21.0118 15.4621 20.9472 15.5157 20.9301 15.5302C20.3129 16.0559 20.3145 16.0546 19.8719 16.4442C19.4979 16.7732 19.0291 17.1972 18.7512 17.4573C18.7067 17.4989 18.6201 17.58 18.5587 17.6372C17.9558 18.1994 17.0642 19.0743 16.51 19.6471C16.3286 19.8347 16.1713 19.9973 16.1604 20.0082C16.1429 20.0259 16.0417 20.1326 15.8254 20.3618C15.7344 20.4582 15.4232 20.7926 15.3652 20.8562C15.3404 20.8834 15.2867 20.9421 15.2459 20.9866C15.1265 21.1166 14.9745 21.2843 14.9217 21.3444C14.8948 21.3751 14.8695 21.4028 14.8655 21.4063C14.8592 21.4117 14.6982 21.5924 14.6066 21.6969C14.5886 21.7175 14.5342 21.7786 14.4856 21.8329C14.3242 22.0133 13.7306 22.7036 13.5611 22.9082C13.5497 22.9219 13.4617 23.0276 13.3653 23.143C13.1574 23.3923 12.863 23.7523 12.6984 23.9587C12.4639 24.2526 12.3436 24.4042 12.3197 24.4361C12.3063 24.4539 12.2389 24.54 12.1698 24.6277C11.9892 24.8568 11.897 24.9768 11.5874 25.3864C11.329 25.7285 11.194 25.9099 10.9603 26.2294C10.7711 26.4879 10.7509 26.5156 10.7016 26.586C10.6743 26.625 10.6045 26.7229 10.5466 26.8034C10.4886 26.884 10.418 26.9833 10.3896 27.0242C10.3612 27.0649 10.2582 27.2124 10.1606 27.3517C9.88074 27.7512 9.19244 28.7799 8.96379 29.1403C8.91979 29.2096 8.86419 29.2969 8.84022 29.3344C8.76671 29.4494 8.42151 29.9994 8.38388 30.0616C7.90672 30.8489 7.59404 31.3727 7.49272 31.5543C7.47565 31.585 7.4487 31.6321 7.43284 31.6593C7.37999 31.7499 7.08949 32.2638 7.04149 32.3515C7.01547 32.3992 6.97812 32.4672 6.95848 32.5029C6.93885 32.5386 6.90518 32.5998 6.88371 32.639C6.86221 32.6781 6.83212 32.7323 6.81683 32.7594C6.80152 32.7866 6.76668 32.8507 6.7394 32.9016C6.71212 32.9526 6.63903 33.0889 6.57698 33.2045C6.23749 33.8368 5.74511 34.8116 5.43145 35.4726C5.39436 35.5507 5.33879 35.6677 5.308 35.7321C5.25805 35.837 5.11797 36.1402 5.04244 36.3069C5.02705 36.341 4.99775 36.405 4.97731 36.4491C4.85855 36.7059 4.52337 37.4707 4.41391 37.7346C4.3843 37.806 4.31727 37.9673 4.26492 38.0931C4.04469 38.6223 3.74758 39.3715 3.62272 39.7123C3.59657 39.7837 3.53774 39.9422 3.49197 40.0646C3.2324 40.7587 2.88427 41.7723 2.66207 42.4811C2.64183 42.5456 2.61201 42.6402 2.59582 42.6911C2.56051 42.8026 2.34023 43.5298 2.2682 43.7729C2.21344 43.9576 2.02002 44.6517 1.95478 44.8975C1.84043 45.3286 1.79608 45.5009 1.70645 45.8618C1.45828 46.8612 1.26378 47.7407 1.06538 48.7602C0.636383 50.9652 0.31445 53.4047 0.155986 55.6513C0.145428 55.8008 0.131321 56.0011 0.124622 56.0962C0.102111 56.4161 0.0601634 57.2164 0.0442883 57.629C0.0406277 57.7243 0.0345516 57.8799 0.0307914 57.9752C0.0135468 58.4122 0.000236566 59.1217 0.000124496 59.6098L0 60.1445C1.62253 61.1092 2.85695 61.5702 4.52324 61.5212C6.05353 61.4988 7.71336 61.0248 9.01453 60.1445L9.01465 59.9497C9.01526 58.9666 9.08204 57.2514 9.15814 56.2631C9.38252 53.3498 9.77094 50.8951 10.4455 48.1269C10.4872 47.9561 10.6704 47.2625 10.7582 46.9433C10.7896 46.8291 10.9485 46.2785 10.9882 46.1459C11.0066 46.0848 11.0289 46.0098 11.0378 45.9791C11.0585 45.9082 11.1999 45.4536 11.2166 45.4044C11.2235 45.3839 11.2722 45.2339 11.3248 45.0706C11.6379 44.0995 12.0867 42.888 12.5132 41.8631C12.7686 41.2492 13.1609 40.3692 13.4499 39.7617C13.4871 39.6835 13.5479 39.5557 13.585 39.4775C13.7062 39.222 14.2639 38.1181 14.4124 37.8396C14.4921 37.6901 14.5857 37.5149 14.6202 37.4503C14.677 37.3441 14.9177 36.9055 15.0037 36.752C15.036 36.6943 15.3274 36.1828 15.3787 36.0938C15.5196 35.8495 15.7029 35.5396 15.8632 35.2749C16.0103 35.0316 16.3147 34.539 16.3671 34.459C16.3827 34.4352 16.4752 34.2906 16.5726 34.1377C16.7897 33.7969 16.7898 33.7966 17.1355 33.2787C17.4963 32.7379 17.7227 32.4082 18.0096 32.0055C18.0581 31.9376 18.1061 31.8696 18.1162 31.8549C18.178 31.7653 18.5709 31.2273 18.7191 31.0296C18.8154 30.9007 18.928 30.7496 18.9692 30.6938C19.0348 30.6046 19.1399 30.4674 19.4797 30.0271C19.6809 29.7662 20.2236 29.0856 20.4252 28.8411C20.7304 28.471 20.9477 28.2111 21.2158 27.8956C21.2996 27.797 21.3947 27.6857 21.4273 27.6483C21.6106 27.4376 21.8461 27.1675 21.8745 27.1352C21.8927 27.1148 21.9468 27.0536 21.9948 26.9994C22.0426 26.945 22.1077 26.8727 22.1391 26.8388C22.1705 26.8048 22.2824 26.6823 22.3878 26.5668C23.3333 25.5303 24.6798 24.2025 25.6677 23.3325C25.6951 23.3084 25.7763 23.2365 25.8482 23.1726C25.9199 23.1087 25.9957 23.0418 26.0162 23.0241C26.0368 23.0063 26.1072 22.9451 26.1726 22.8881C26.2381 22.8311 26.3276 22.7531 26.372 22.7148C26.4648 22.6342 26.8662 22.2943 26.9755 22.2037C27.0163 22.1697 27.056 22.1363 27.0633 22.1295C27.0708 22.1226 27.1012 22.0975 27.1308 22.0737C27.1605 22.05 27.2527 21.9746 27.3357 21.9063C27.925 21.4221 28.6971 20.8198 29.3658 20.3232C29.6723 20.0953 30.0484 19.82 30.0981 19.7869C30.1133 19.7769 30.1836 19.7268 30.254 19.6757C30.3245 19.6247 30.3945 19.5747 30.4097 19.5644C30.4249 19.5542 30.4924 19.5071 30.5599 19.4594C31.26 18.9658 32.1432 18.3753 32.8706 17.9144C32.9973 17.8342 33.1291 17.7507 33.1633 17.7288C33.4213 17.5642 34.4085 16.9671 34.7259 16.7836C34.9918 16.6299 35.2061 16.5071 35.2578 16.4787C35.2906 16.4607 35.393 16.4031 35.4853 16.3507C35.5778 16.2983 35.7348 16.2109 35.8341 16.1564C35.9334 16.1019 36.0355 16.0457 36.0608 16.0314C36.2107 15.9475 36.9052 15.5791 37.241 15.4054C37.4635 15.2903 38.8157 14.6203 38.8254 14.6203C38.8288 14.6203 38.9234 14.5766 39.0354 14.5233C39.1476 14.47 39.2702 14.4121 39.3079 14.3947C39.3456 14.3772 39.4314 14.3374 39.499 14.3062C39.5663 14.275 39.625 14.2494 39.625 14.2494C39.625 14.2494 39.695 14.2186 39.7763 14.1809C39.9714 14.0905 39.9734 14.0896 40.36 13.9199C41.421 13.4545 42.3652 13.0719 43.4665 12.6615C43.6548 12.5913 43.8481 12.52 43.8961 12.5031C43.944 12.4861 44.0364 12.4526 44.1015 12.4286C45.1944 12.025 47.125 11.4161 48.4719 11.0502C49.155 10.8646 49.6872 10.7283 50.2834 10.586C53.9867 9.70233 57.6582 9.1731 61.4395 8.97793C62.4267 8.92699 63.0416 8.90982 64.1787 8.90149C66.9725 8.88099 69.5528 9.03088 72.3093 9.37378C72.6461 9.41568 72.7617 9.43105 73.243 9.49802C74.7812 9.71195 76.5294 10.0304 78.0814 10.3794C79.1446 10.6185 80.391 10.9336 81.2492 11.1803C81.3312 11.2039 81.4825 11.2473 81.5853 11.2767C82.6074 11.5691 84.0918 12.0468 85.0031 12.3766C85.0476 12.3927 85.1457 12.4282 85.2209 12.4555C85.2963 12.4828 85.414 12.5255 85.4825 12.5503C85.604 12.5943 85.7293 12.6412 86.1735 12.8092C86.8602 13.0687 87.8114 13.4546 88.4832 13.746C89.6471 14.251 90.6589 14.7256 91.6768 15.2441C92.1743 15.4975 92.232 15.5275 92.6356 15.7422C92.9717 15.921 93.0195 15.947 93.3005 16.1025C93.4365 16.1779 93.5499 16.2395 93.5526 16.2395C93.5552 16.2395 93.5784 16.2525 93.6039 16.2683C93.6294 16.2842 93.6812 16.3139 93.7189 16.3345C93.7564 16.355 93.8083 16.3838 93.8339 16.3984C93.8597 16.413 93.9002 16.436 93.9243 16.4496C93.9482 16.4632 93.9875 16.4855 94.0114 16.4991C94.1161 16.5584 94.1458 16.5755 94.3226 16.678C94.6336 16.8581 95.5308 17.3937 95.6487 17.4696C95.6727 17.485 95.8296 17.5836 95.9973 17.6885C96.605 18.0686 97.3639 18.5669 97.9147 18.9476C97.9936 19.0022 98.0888 19.0675 98.1264 19.0932C98.1642 19.1186 98.2846 19.2032 98.3942 19.281C98.5038 19.3589 98.6057 19.4309 98.6207 19.4411C98.7434 19.5239 99.4067 20.0125 99.9741 20.4382C100.152 20.5717 101.159 21.3611 101.177 21.3817C101.18 21.3855 101.262 21.4522 101.357 21.5302C102.021 22.0689 102.838 22.772 103.48 23.3578C103.62 23.485 103.899 23.7409 103.934 23.7737C103.941 23.7806 104.009 23.8444 104.084 23.9152C104.942 24.7221 105.812 25.589 106.594 26.4184C106.72 26.5517 106.879 26.7225 107.047 26.9064C107.088 26.9507 107.124 26.9899 107.128 26.9932C107.132 26.9966 107.204 27.0772 107.29 27.1725C107.375 27.2676 107.45 27.3511 107.458 27.3579C107.55 27.4435 108.474 28.5169 108.978 29.1254C109.122 29.2989 109.537 29.8149 109.753 30.0897C110.031 30.4428 110.449 30.9934 110.739 31.3874C110.764 31.4214 110.807 31.4798 110.835 31.5172C110.895 31.599 111.174 31.988 111.343 32.228C111.458 32.391 111.498 32.4471 111.668 32.6927C111.953 33.1038 112.466 33.8835 112.794 34.4034C113.351 35.2863 113.96 36.3285 114.478 37.2834C114.782 37.8441 115.269 38.7942 115.492 39.2611C115.695 39.6872 115.822 39.9575 115.91 40.1512C115.941 40.2191 115.983 40.3109 116.004 40.3551C116.057 40.4702 116.304 41.029 116.372 41.1894C116.404 41.2643 116.435 41.3365 116.442 41.35C116.453 41.374 116.573 41.6593 116.663 41.8754C116.727 42.032 116.923 42.5182 116.98 42.6665C117.008 42.7379 117.046 42.8353 117.064 42.8828C117.205 43.2459 117.474 43.9785 117.569 44.2549C117.58 44.2889 117.647 44.4864 117.718 44.6936C118.49 46.9563 119.076 49.3107 119.461 51.6978C119.807 53.8488 119.986 55.6629 120.08 57.9752C120.112 58.7398 120.098 61.0247 120.059 61.6525C120.056 61.7034 120.05 61.8146 120.046 61.8997C119.899 65.018 119.372 68.3172 118.526 71.4234C118.14 72.8387 117.57 74.5873 117.102 75.7929C116.95 76.1842 116.894 76.325 116.764 76.647C116.57 77.1292 116.317 77.7325 116.18 78.0364C116.168 78.0636 116.113 78.1859 116.058 78.3084C115.688 79.1375 115.097 80.3542 114.716 81.071C114.51 81.4592 114.465 81.543 114.216 81.998C113.606 83.1137 112.733 84.5428 111.943 85.7186C111.64 86.17 111.219 86.7782 111.068 86.9828C111.047 87.0116 110.949 87.1462 110.851 87.2822C110.753 87.4182 110.625 87.5934 110.567 87.6715C110.383 87.9179 109.978 88.4544 109.937 88.5058C109.915 88.533 109.808 88.6694 109.699 88.8087C109.508 89.053 109.299 89.3176 109.214 89.4205C109.192 89.4477 109.085 89.5785 108.977 89.7111C108.868 89.8436 108.735 90.0049 108.681 90.0696C108.627 90.134 108.574 90.1981 108.562 90.2118C108.51 90.2749 108.292 90.5338 108.286 90.5391C108.283 90.5426 108.213 90.6232 108.131 90.7185C107.961 90.916 107.759 91.1482 107.646 91.2747C107.409 91.541 107.077 91.9074 106.885 92.1152C106.847 92.1566 106.641 92.3779 106.579 92.4437C105.989 93.073 105.088 93.9782 104.445 94.5874C104.09 94.9232 103.997 95.0098 103.723 95.2617C103.668 95.312 103.618 95.3589 103.61 95.3659C103.541 95.4295 103.33 95.6187 103.119 95.8051C102.979 95.9295 102.836 96.0569 102.801 96.0881C102.712 96.1676 102.676 96.1984 102.472 96.3731C102.373 96.4578 102.289 96.5301 102.285 96.5337C102.282 96.5373 102.243 96.5708 102.198 96.6079C102.154 96.6451 102.114 96.6787 102.111 96.6827C102.107 96.6865 101.917 96.8446 101.688 97.0338C101.458 97.223 101.256 97.3895 101.239 97.404C101.173 97.4593 100.732 97.81 100.554 97.9493C100.484 98.0037 100.392 98.0761 100.349 98.1101C100.306 98.1441 100.243 98.1924 100.21 98.2175C100.177 98.2427 100.082 98.3151 100 98.3783C99.8151 98.5209 98.9742 99.1452 98.8174 99.2563C98.79 99.2757 98.716 99.3289 98.6527 99.3745C98.5518 99.4472 98.4101 99.5479 98.265 99.6498C98.2401 99.6673 98.1806 99.7085 98.1327 99.7414C98.0847 99.7745 97.9922 99.8386 97.9273 99.884C97.4243 100.235 96.3736 100.928 95.9413 101.194C95.9071 101.215 95.8554 101.247 95.8264 101.266C95.7974 101.284 95.7302 101.326 95.677 101.358C95.6238 101.391 95.5046 101.464 95.4121 101.52C94.9337 101.814 94.0039 102.359 93.6374 102.561C93.6033 102.579 93.5056 102.634 93.4199 102.681C93.3344 102.729 93.2335 102.784 93.1958 102.804C93.1583 102.825 93.1162 102.848 93.1024 102.856C93.0888 102.864 93.0272 102.898 92.9656 102.931C92.9038 102.963 92.7946 103.022 92.7226 103.061C92.6509 103.1 92.5303 103.163 92.4551 103.203C92.3797 103.242 92.2788 103.295 92.231 103.32C91.6775 103.614 90.5364 104.172 89.7878 104.514C87.6553 105.489 85.0687 106.467 82.6685 107.208C82.5659 107.24 82.4285 107.282 82.3634 107.303C82.1631 107.365 81.555 107.544 81.1495 107.659C76.9544 108.85 72.609 109.61 68.3934 109.889C67.6918 109.936 67.1912 109.961 66.2394 109.998C65.6928 110.019 63.2057 110.019 62.6473 109.998C61.2009 109.943 60.2502 109.882 59.0302 109.766C57.4606 109.616 56.0202 109.415 54.1619 109.086C53.9462 109.048 53.7416 109.012 53.7074 109.006C53.6411 108.995 53.2014 108.913 52.811 108.839C51.7266 108.633 50.0196 108.248 49.0445 107.988C48.8897 107.946 48.4651 107.83 48.2788 107.777C48.0537 107.714 48.0004 107.701 47.7123 107.642C47.2588 107.547 47.1887 107.532 47.015 107.49C46.4253 107.348 46.0507 107.192 45.8692 107.015C45.795 106.942 45.768 106.902 45.7294 106.806C45.6405 106.585 45.6337 106.484 45.6276 105.304C45.6247 104.746 45.6191 104.276 45.6152 104.259C45.603 104.207 45.607 102.931 45.6201 102.702C45.6269 102.583 45.6435 102.31 45.6571 102.096C45.6817 101.709 45.7147 101.112 45.7514 100.391C45.8268 98.9096 45.8783 98.1198 45.9516 97.3252C46.0645 96.0971 46.1825 95.3304 46.4801 93.8889C46.7925 92.3754 46.893 91.8433 46.9791 91.2521L47.0073 91.0565L47.1887 91.0641C47.9828 91.0974 48.3537 91.1213 49.0258 91.1827C49.703 91.2445 50.3431 91.3161 52.0017 91.5157C53.7324 91.7239 54.9367 91.8154 56.7456 91.8762C57.3107 91.8951 59.0906 91.8951 59.6341 91.8761C61.2706 91.8191 62.449 91.7226 63.9609 91.5221C66.074 91.2421 68.3487 90.6949 70.1614 90.0306C70.6782 89.8412 71.3595 89.568 71.7054 89.4112C71.7431 89.394 71.8019 89.3677 71.8361 89.3526C71.8703 89.3373 71.9405 89.3055 71.9918 89.2817C72.0431 89.2578 72.1161 89.2244 72.1536 89.2074C72.5116 89.0449 73.1511 88.7176 73.5794 88.4779C73.7499 88.3825 74.1894 88.1243 74.4198 87.9841C74.7861 87.7613 75.3741 87.3602 75.8005 87.042C75.9607 86.9227 76.1068 86.8137 76.1252 86.8002C76.2096 86.7374 76.6079 86.4172 76.7107 86.3292C76.7278 86.3145 76.7866 86.2644 76.8414 86.218C76.8963 86.1714 76.9439 86.1303 76.9472 86.1267C76.9507 86.1232 76.976 86.1014 77.0032 86.0782C77.4714 85.6834 78.2892 84.8741 78.7776 84.3226C78.8221 84.2723 78.8641 84.2252 78.8709 84.2178C78.8779 84.2105 78.9172 84.1654 78.9582 84.118C78.9992 84.0705 79.0404 84.0235 79.0499 84.0137C79.0872 83.9743 79.3789 83.6254 79.5103 83.4627C79.5871 83.3675 79.677 83.2563 79.7099 83.2156C79.8251 83.0732 80.332 82.3986 80.4482 82.2328C80.4793 82.1886 80.5482 82.0914 80.6015 82.0166C80.8711 81.6373 81.4096 80.8132 81.7161 80.3107C81.8642 80.068 82.1887 79.5205 82.2543 79.4023C82.2713 79.3716 82.2981 79.3245 82.314 79.2973C82.3796 79.1845 82.5502 78.8795 82.5502 78.875C82.5502 78.8724 82.5633 78.8496 82.5791 78.8241C82.595 78.7988 82.6406 78.7168 82.6802 78.6422C82.7198 78.5673 82.7565 78.5006 82.7615 78.4938C82.7666 78.4869 82.8059 78.4146 82.849 78.333C82.8919 78.2514 82.9527 78.1374 82.9839 78.0797C83.2251 77.6327 83.9156 76.2632 84.2147 75.6385C84.5296 74.9808 84.8504 74.3002 85.101 73.7575C85.1759 73.5955 85.2539 73.4268 85.2743 73.3826C85.2947 73.3384 85.3323 73.2578 85.3578 73.2034C85.3832 73.149 85.4532 72.9988 85.5133 72.8697C85.8648 72.1137 86.3868 71.0138 86.6282 70.5212C86.6947 70.3852 86.7759 70.2183 86.8085 70.1504C87.1328 69.474 87.9885 67.8056 88.3416 67.1617C88.3818 67.0884 88.4147 67.026 88.4147 67.0233C88.4147 67.0205 88.4334 66.986 88.4563 66.9465C88.4793 66.907 88.5273 66.82 88.5631 66.753C88.5989 66.6861 88.6397 66.6109 88.6539 66.5861C88.6764 66.5464 88.7575 66.4007 88.8457 66.2415C88.8616 66.2127 88.8993 66.146 88.9293 66.0932C88.9593 66.0403 88.9977 65.9722 89.0148 65.9416C89.1944 65.6205 89.6629 64.8233 89.9193 64.4026C89.9814 64.3007 90.0474 64.1922 90.0659 64.1616C90.5514 63.3597 91.3965 62.0912 91.9999 61.259C92.0311 61.216 92.065 61.1687 92.0753 61.154C92.0856 61.1392 92.1125 61.102 92.1352 61.0715C92.1578 61.0408 92.2167 60.9611 92.2659 60.8942C92.3549 60.7731 92.7776 60.2202 92.8532 60.126C92.875 60.0988 92.9904 59.9541 93.1098 59.8046C93.229 59.655 93.3826 59.4655 93.4512 59.3833C93.5196 59.3014 93.5953 59.2101 93.6192 59.1804C93.6431 59.151 93.6685 59.1207 93.6754 59.1134C93.6824 59.1059 93.7665 59.0082 93.8622 58.8959C94.0341 58.6944 94.3422 58.3427 94.4526 58.2219C94.4839 58.1876 94.5291 58.1375 94.553 58.1107C95.2227 57.3583 96.369 56.2155 97.2728 55.3988C97.3211 55.3552 97.3889 55.294 97.4232 55.263C97.4782 55.2131 97.6252 55.0833 97.7343 54.9884C97.7549 54.9704 97.8444 54.8932 97.9334 54.8167C98.0224 54.7402 98.1151 54.6604 98.139 54.6392C98.1631 54.6181 98.2163 54.573 98.2574 54.5391C98.2984 54.5053 98.3347 54.4746 98.3382 54.4708C98.3703 54.4355 99.3033 53.6844 99.5709 53.4782C100.492 52.769 101.121 52.3394 102.372 51.5667C102.54 51.463 102.697 51.3657 102.721 51.3503C102.745 51.3347 102.862 51.2622 102.982 51.1891C103.102 51.116 103.228 51.0384 103.263 51.0165C103.297 50.9949 103.417 50.9193 103.53 50.849C104.159 50.4567 104.953 49.9263 105.152 49.7647C105.259 49.6786 105.454 49.4817 105.53 49.3845C105.83 48.9978 106.017 48.5152 106.043 48.0616C106.067 47.6369 106.004 47.2942 105.839 46.9461C105.776 46.8142 105.62 46.5658 105.557 46.498C105.542 46.4809 105.495 46.4282 105.454 46.3809C105.183 46.0695 104.72 45.6643 104.209 45.2923C103.785 44.984 102.949 44.4671 102.295 44.1087C102.262 44.0908 102.192 44.052 102.139 44.0222C102.086 43.9924 102.017 43.9541 101.986 43.9371C101.955 43.9203 101.841 43.8564 101.731 43.795C101.622 43.7339 101.499 43.6658 101.459 43.6436C101.419 43.6216 101.358 43.5873 101.324 43.5675C101.291 43.548 101.261 43.5317 101.258 43.5317C101.256 43.5317 101.211 43.5067 101.159 43.4761C101.107 43.4456 101.062 43.4204 101.059 43.4204C101.057 43.4204 101.012 43.3955 100.96 43.3648C100.908 43.3343 100.863 43.3092 100.861 43.3092C100.858 43.3092 100.802 43.2787 100.736 43.2413C100.669 43.2038 100.613 43.1734 100.61 43.1734C100.607 43.1734 100.578 43.1574 100.545 43.1382C100.466 43.0916 99.936 42.8107 99.6329 42.6542C99.2358 42.4494 98.3649 42.0237 97.9708 41.8418C97.8749 41.7974 97.7385 41.734 97.6674 41.7009C97.5964 41.6676 97.5363 41.6406 97.5341 41.6406C97.5316 41.6406 97.4758 41.6155 97.4098 41.585C97.3438 41.5543 97.288 41.5294 97.2857 41.5294C97.2817 41.5294 97.2302 41.5063 97.0339 41.4169C96.9339 41.3714 96.357 41.1238 96.2153 41.0655C96.1605 41.0432 96.0456 40.9957 95.9599 40.9604C95.7255 40.8635 95.3913 40.728 95.3 40.6932C95.2555 40.676 95.1016 40.6157 94.9577 40.5592C93.8137 40.1087 92.0231 39.4973 90.8668 39.1623C90.7816 39.1377 90.6671 39.1045 90.6123 39.0884C90.2435 38.9808 90.1077 38.9416 89.9648 38.9024C88.3547 38.4606 87.1612 38.1758 85.4887 37.8344C83.3536 37.3988 80.6985 36.9974 78.6554 36.8016C74.0693 36.3618 68.8636 36.4316 64.4325 36.9925C62.3461 37.2566 60.5087 37.5827 58.6112 38.0257C57.7163 38.2347 56.866 38.4594 55.8863 38.7458C54.9424 39.0218 53.849 39.3888 52.7531 39.7974C51.9118 40.111 50.734 40.609 49.8414 41.0286C49.5777 41.1527 48.7628 41.5548 48.5652 41.6586C48.5036 41.6909 48.3944 41.7482 48.3225 41.7858C48.2505 41.8234 48.1357 41.8848 48.0671 41.9222C47.9987 41.9596 47.895 42.0154 47.8367 42.0462C47.7786 42.0773 47.6899 42.1265 47.6397 42.1559C47.5894 42.1852 47.5465 42.2091 47.544 42.2091C47.5383 42.2091 47.0813 42.4697 46.9715 42.5357C46.9236 42.5645 46.8115 42.631 46.7225 42.6837C46.5062 42.8114 46.4047 42.8736 46.0708 43.0819C45.8564 43.2156 45.7896 43.2583 45.4859 43.4547C45.3307 43.5552 44.9804 43.7907 44.8516 43.8813C44.7612 43.9449 44.6701 44.0083 44.5738 44.0749C44.1839 44.3436 43.4156 44.9223 42.9818 45.2735C42.8761 45.3591 42.7556 45.4565 42.7141 45.4901C42.6726 45.5237 42.6324 45.5572 42.6247 45.5643C42.6172 45.5716 42.5837 45.5996 42.5504 45.6268C42.4741 45.6892 42.3169 45.8214 42.3085 45.8303C42.3052 45.8341 42.2631 45.8704 42.2153 45.9112C42.1673 45.9519 42.1113 45.9999 42.0907 46.0176C42.0128 46.0846 41.6772 46.3821 41.6175 46.4369C41.2496 46.7753 41.1073 46.9109 40.7148 47.2985C40.317 47.6912 40.1545 47.858 39.7922 48.2458C39.7227 48.3201 39.4464 48.6266 39.334 48.7542C39.307 48.7848 39.1366 48.9813 39.0288 49.1064C38.7406 49.4403 38.3305 49.9527 38.0048 50.3857C37.9126 50.5082 37.8245 50.6249 37.8089 50.6452C37.5906 50.9306 36.9581 51.8534 36.7736 52.1561C36.7602 52.178 36.6841 52.3005 36.6043 52.428C36.3608 52.8182 36.0517 53.3479 35.8702 53.6861C35.8337 53.754 35.7824 53.8486 35.7562 53.8961C35.6892 54.0177 35.2045 54.9816 35.1316 55.1384C35.0982 55.2098 35.0295 55.3599 34.9787 55.4721C34.9279 55.5842 34.876 55.6983 34.8636 55.7255C34.8511 55.7527 34.8172 55.8306 34.7882 55.8986C34.7593 55.9665 34.7256 56.0444 34.7134 56.0716C34.62 56.2782 34.3592 56.9324 34.196 57.3694C34.069 57.7097 33.8063 58.4787 33.7103 58.7909C33.4721 59.5672 33.2466 60.3996 33.101 61.0406C33.0164 61.4132 33.0085 61.4489 32.9581 61.6895C32.657 63.1228 32.4505 64.6214 32.3287 66.2567C32.2934 66.7313 32.257 67.5372 32.2472 68.0553C32.235 68.7054 32.2461 70.0278 32.2671 70.416C32.2706 70.4807 32.2819 70.7004 32.2922 70.9043C32.3995 73.0326 32.6622 75.0525 33.0883 77.0228C33.1059 77.1044 33.1291 77.2129 33.1398 77.2638C33.2249 77.6706 33.4712 78.6986 33.6801 79.5198C33.8473 80.1768 33.9086 80.4133 34.1405 81.2996C34.188 81.4803 34.2617 81.7636 34.3402 82.0659C34.4659 82.5502 34.6558 83.3093 34.7685 83.778L34.883 84.2538L34.9258 84.2574L34.9687 84.2611L35.0295 84.0225C35.2143 83.2984 35.5742 82.3253 36.0826 81.176C36.1158 81.1012 36.1721 80.9705 36.2079 80.8855C36.2439 80.8006 36.2886 80.6976 36.3072 80.6569C36.3259 80.616 36.3987 80.4492 36.4689 80.2861C36.539 80.1229 36.609 79.9616 36.6244 79.9276C36.6397 79.8937 36.6706 79.824 36.693 79.7731C36.7546 79.632 36.8179 79.4905 36.8642 79.39C36.8815 79.3526 36.9221 79.2635 36.9546 79.1921C36.9869 79.1207 37.0612 78.9594 37.1197 78.8336C37.2192 78.6195 37.259 78.5356 37.438 78.1601C37.5473 77.9309 38.1484 76.7369 38.2624 76.5222C38.4928 76.089 38.6094 75.8719 38.7509 75.6138C38.8329 75.4642 38.9183 75.3085 38.9406 75.2676C38.9995 75.1601 39.045 75.0794 39.0855 75.0113C39.105 74.9784 39.1211 74.9488 39.1211 74.9455C39.1211 74.9422 39.1342 74.9188 39.1501 74.8935C39.1661 74.8682 39.1991 74.8112 39.2234 74.767C39.4082 74.4319 40.0353 73.3803 40.3675 72.8486C40.5354 72.5798 40.6876 72.3381 40.7298 72.2731C40.7551 72.2342 40.7933 72.1744 40.8144 72.1404C41.0043 71.8358 41.7309 70.7522 42.0826 70.2492C42.1017 70.222 42.1866 70.1024 42.2713 69.9834C42.3561 69.8645 42.4411 69.745 42.4601 69.7178C42.4945 69.6687 42.5984 69.526 42.7968 69.2557C43.2684 68.613 43.9889 67.6841 44.5045 67.0539C44.6514 66.8743 44.6712 66.8505 44.8066 66.6885C44.8467 66.6403 44.8984 66.5781 44.9213 66.5501C44.9441 66.522 44.9722 66.4882 44.9836 66.4749C44.9949 66.4617 45.027 66.4239 45.0551 66.3908C45.3974 65.9878 45.9151 65.393 46.1298 65.1566C46.1668 65.1159 46.2144 65.0631 46.2357 65.0392C46.294 64.9738 46.6218 64.6136 46.6295 64.6067C46.6333 64.6032 46.6748 64.5587 46.722 64.5078C47.5348 63.6284 48.6282 62.5309 49.4559 61.7637C49.555 61.6719 49.6753 61.5603 49.7231 61.5156C49.8769 61.3723 50.2518 61.0341 50.4888 60.8246C50.6155 60.7127 50.722 60.6179 50.7255 60.6141C50.7288 60.6101 50.8578 60.4988 51.0119 60.3668C51.1658 60.2346 51.2948 60.1237 51.2981 60.1201C51.3114 60.1062 52.0102 59.5225 52.0828 59.4646C52.1127 59.4409 52.1881 59.3797 52.2502 59.3286C53.1346 58.6029 54.3787 57.669 55.4631 56.9165C57.051 55.8143 58.7548 54.7694 60.4435 53.8618C60.9184 53.6066 60.8569 53.639 61.3399 53.3889C61.6809 53.2125 62.5353 52.792 62.887 52.6278C62.9435 52.6012 63.0388 52.5567 63.0987 52.5288C63.3439 52.4141 63.4404 52.3696 63.4439 52.3696C63.446 52.3696 63.5001 52.3453 63.5642 52.3155C63.7425 52.2327 63.85 52.1842 63.8548 52.1842C63.8572 52.1842 63.9001 52.1653 63.9504 52.1421C64.0501 52.0963 64.1757 52.0418 64.6581 51.8351C65.0559 51.6647 65.0606 51.6628 65.6479 51.4273C66.4016 51.1255 66.9744 50.9107 67.8268 50.6102C68.3133 50.4389 69.4549 50.0712 69.9623 49.9223C70.7074 49.704 71.2942 49.5429 72.0105 49.3599C72.1122 49.3339 72.6491 49.2045 72.8322 49.1617C75.293 48.5875 77.8977 48.1935 80.3838 48.0192C81.164 47.9644 82.4032 47.9055 82.7184 47.9081L82.7931 47.9086L82.6685 47.9719C82.3625 48.1273 81.8873 48.3317 81.4607 48.4915C80.8875 48.7062 80.477 48.8417 79.257 49.2182C78.487 49.4559 78.4053 49.4817 78.0367 49.6051C77.485 49.7898 77.1645 49.9085 76.6547 50.1178C76.5725 50.1516 76.4421 50.2048 76.3648 50.2361C76.2084 50.2997 75.1303 50.7573 75.0423 50.7975C75.0114 50.8116 74.8601 50.8784 74.7062 50.946C73.1137 51.6443 71.1319 52.6071 69.6261 53.4139C69.5474 53.4562 69.4382 53.5145 69.3834 53.5438C69.3286 53.5731 69.2277 53.6275 69.1593 53.6649C69.0907 53.7024 69.0039 53.7497 68.9662 53.7699C68.9285 53.7902 68.8502 53.833 68.7919 53.8651C68.7337 53.8973 68.6468 53.9446 68.5988 53.9706C68.551 53.9964 68.4501 54.0522 68.3747 54.0945C68.2995 54.1368 68.2098 54.1867 68.1756 54.2054C68.1414 54.2241 68.077 54.2603 68.0324 54.2858C67.9878 54.3112 67.9303 54.3438 67.9047 54.3582C67.879 54.3726 67.8384 54.3954 67.8145 54.4091C67.6986 54.4748 67.6736 54.489 67.6214 54.5179C67.3697 54.6585 66.4543 55.1933 66.1897 55.3547C66.1314 55.3902 65.9633 55.4917 65.816 55.5803C65.6689 55.6688 65.5036 55.7693 65.4488 55.8034C65.394 55.8377 65.3099 55.8894 65.262 55.9181C65.214 55.9471 65.1346 55.9961 65.0856 56.0273C65.0365 56.0585 64.9526 56.1115 64.8988 56.1451C64.5824 56.3432 64.514 56.3865 64.3843 56.4703C64.3054 56.5213 64.1794 56.6025 64.104 56.6511C63.6574 56.9382 62.4567 57.7446 62.1742 57.9471C62.1305 57.9785 61.9747 58.0883 61.863 58.1666C61.8233 58.1944 61.4413 58.4667 61.3462 58.5348C61.1252 58.6936 60.9353 58.8332 60.544 59.1246C60.0848 59.4669 60.0226 59.5136 59.7722 59.7056C59.6924 59.7668 59.609 59.8307 59.5867 59.8477C59.1264 60.1991 58.1019 61.0237 57.673 61.3879C57.6559 61.4024 57.502 61.5329 57.3308 61.6779C57.0688 61.8995 56.7487 62.1761 56.5649 62.3393C56.541 62.3606 56.4094 62.4772 56.2724 62.5987C55.7938 63.0227 55.4423 63.3462 54.8162 63.9389C54.666 64.0812 53.8896 64.8387 53.8748 64.8578C53.8704 64.8633 53.7245 65.0106 53.5505 65.1852C53.254 65.4829 53.106 65.6347 52.8368 65.9175C52.7757 65.9818 52.6886 66.0732 52.6431 66.1207C52.5178 66.2519 52.1143 66.6875 52.0017 66.8131C51.9469 66.8743 51.899 66.9269 51.8952 66.9304C51.8664 66.9566 51.1836 67.7278 51.0197 67.9192C51.0051 67.9364 50.9311 68.0225 50.8551 68.1109C50.7792 68.1992 50.6036 68.4079 50.4649 68.5744C50.326 68.7409 50.202 68.8895 50.1891 68.9046C50.1533 68.9469 49.9285 69.2245 49.8723 69.2959C49.8448 69.3307 49.7573 69.4398 49.6781 69.5384C49.2944 70.0151 48.4413 71.1407 48.2071 71.479C48.1954 71.496 48.1535 71.5548 48.1141 71.6095C47.6941 72.192 47.2176 72.8927 46.7586 73.603C46.7045 73.6867 46.6457 73.7785 46.6281 73.8069C46.6103 73.8353 46.5705 73.8975 46.5396 73.945C46.5089 73.9927 46.4598 74.0705 46.4308 74.1181C46.4019 74.1658 46.3499 74.2491 46.3153 74.3035C46.2457 74.413 45.8296 75.0995 45.7796 75.1873C45.7622 75.2178 45.6767 75.3653 45.5896 75.5148C45.4278 75.7924 45.1817 76.227 45.0853 76.4049C45.0558 76.4591 45.0279 76.5092 45.023 76.5161C45.0181 76.5229 44.9846 76.5841 44.9485 76.652C44.9122 76.7201 44.8673 76.8034 44.8487 76.8374C44.7932 76.9382 44.6834 77.1435 44.5144 77.4631C44.1696 78.1154 43.6206 79.2337 43.2719 79.994C43.2199 80.107 43.1635 80.2302 43.1462 80.2676C43.0811 80.4093 42.7692 81.11 42.7692 81.1149C42.7692 81.1175 42.7518 81.1575 42.7305 81.2036C42.5682 81.555 42.0242 82.88 41.7309 83.638C41.5733 84.0455 41.4026 84.4955 41.3869 84.5444C41.3815 84.5614 41.3592 84.6225 41.3374 84.6802C41.3155 84.7381 41.2932 84.7993 41.2876 84.8162C41.282 84.8332 41.2597 84.8944 41.2379 84.9522C40.9338 85.7628 40.4087 87.3238 40.0442 88.4998C39.7791 89.3552 39.407 90.6348 39.2265 91.3117C39.1869 91.4604 39.1548 91.5786 39.1274 91.6763C39.1113 91.7342 39.0719 91.8816 39.0399 92.0039C39.008 92.1263 38.9542 92.3321 38.9204 92.4612C38.4999 94.0707 38.1639 95.5741 37.8335 97.3252C37.6745 98.1683 37.4742 99.4086 37.3464 100.341C37.0714 102.348 36.9078 104.15 36.8111 106.237C36.7844 106.816 36.7579 107.977 36.7535 108.765C36.7469 109.974 36.6853 110.958 36.5554 111.929C36.5069 112.293 36.4987 112.665 36.5357 112.825C36.5806 113.02 36.6345 113.094 36.8172 113.215C37.0256 113.353 37.3778 113.508 37.8758 113.681C38.235 113.805 38.2947 113.829 38.7787 114.03C39.2709 114.235 40.3235 114.644 40.5156 114.705C40.5327 114.71 40.5944 114.732 40.6527 114.754C40.7108 114.775 40.7724 114.797 40.7895 114.803C40.8066 114.809 40.8851 114.837 40.9639 114.865C41.0426 114.894 41.1295 114.924 41.1569 114.933C41.1843 114.942 41.3131 114.986 41.4431 115.032C41.6934 115.119 42.3006 115.324 42.4891 115.386C42.5507 115.406 42.8029 115.488 43.0494 115.569C43.6501 115.765 43.9514 115.863 44.2198 115.946C44.343 115.985 44.4579 116.021 44.475 116.027C44.5193 116.042 44.794 116.126 45.0415 116.2C45.158 116.234 45.3065 116.279 45.3716 116.299C45.6372 116.379 46.5096 116.623 46.9653 116.744C47.0166 116.758 47.1314 116.788 47.2204 116.812C47.4976 116.887 48.5471 117.146 48.9387 117.237C52.9974 118.178 57.1041 118.736 61.2465 118.907C62.0649 118.94 62.3443 118.946 63.5259 118.952C65.2978 118.962 66.5843 118.926 68.2503 118.82C68.3529 118.814 68.5295 118.802 68.6425 118.795C69.9862 118.71 71.6794 118.554 73.0128 118.393C74.0712 118.266 74.6529 118.185 75.9077 117.992C76.0686 117.967 76.8894 117.831 77.0532 117.801C77.108 117.792 77.2312 117.77 77.327 117.753C78.0505 117.625 79.1136 117.416 79.7239 117.282C79.7684 117.272 79.8972 117.244 80.0103 117.219C80.1232 117.195 80.2746 117.162 80.3465 117.145C80.4184 117.129 80.5976 117.088 80.7448 117.054C80.8921 117.02 81.0883 116.975 81.1806 116.953C81.503 116.878 82.621 116.596 82.9239 116.515C83.0916 116.469 83.2457 116.428 83.2661 116.422C83.4743 116.369 84.3451 116.123 84.6856 116.021C84.7404 116.004 84.9169 115.951 85.0778 115.903C86.028 115.618 87.4415 115.149 88.3275 114.826C88.6029 114.725 88.8298 114.642 88.863 114.628C88.8801 114.621 89.0258 114.566 89.1867 114.507C89.5426 114.374 90.2587 114.094 90.6558 113.931C91.0183 113.783 91.0555 113.768 91.2099 113.703C91.2784 113.675 91.3792 113.633 91.434 113.61C91.6086 113.539 92.1231 113.317 92.2683 113.252C92.2887 113.242 92.3813 113.201 92.4738 113.161C92.5661 113.121 92.6781 113.071 92.7226 113.051C92.809 113.012 92.8443 112.996 93.0403 112.908C93.1087 112.877 93.2309 112.821 93.3117 112.783C93.3927 112.745 93.4606 112.714 93.4629 112.714C93.4651 112.714 93.5363 112.681 93.621 112.641C93.7056 112.602 93.8393 112.539 93.918 112.501C94.2788 112.332 94.563 112.194 95.0885 111.933C95.7304 111.614 95.9395 111.508 96.5078 111.209C96.7762 111.068 97.1527 110.865 97.4604 110.696C97.6453 110.594 97.8273 110.494 97.865 110.473C97.9027 110.452 97.9746 110.411 98.0249 110.382C98.075 110.353 98.1181 110.328 98.1205 110.328C98.1272 110.328 98.8784 109.897 99.0665 109.785C99.1555 109.732 99.3068 109.642 99.4027 109.586C99.576 109.484 100.23 109.088 100.349 109.013C100.383 108.991 100.473 108.935 100.548 108.888C100.624 108.842 100.722 108.78 100.766 108.752C100.811 108.724 100.942 108.64 101.059 108.567C101.646 108.196 102.5 107.629 103.092 107.218C103.172 107.162 103.264 107.098 103.297 107.076C103.37 107.025 103.516 106.922 103.724 106.775C103.81 106.714 103.893 106.655 103.908 106.645C103.923 106.635 104.005 106.577 104.089 106.515C104.276 106.38 104.337 106.336 104.447 106.256C104.576 106.163 105.134 105.749 105.316 105.611C105.404 105.544 105.491 105.479 105.509 105.465C105.527 105.452 105.638 105.366 105.758 105.274C105.877 105.182 106.014 105.076 106.063 105.039C106.281 104.872 106.948 104.338 107.409 103.961C107.453 103.925 108.005 103.464 108.037 103.436C108.055 103.421 108.175 103.319 108.305 103.208C108.516 103.029 108.864 102.728 108.984 102.621C109.008 102.6 109.086 102.53 109.158 102.466C109.23 102.402 109.292 102.347 109.295 102.344C109.298 102.34 109.326 102.316 109.357 102.289C109.388 102.262 109.447 102.21 109.489 102.172C109.53 102.134 109.617 102.055 109.681 101.998C110.02 101.693 110.556 101.194 110.976 100.793C111.209 100.57 112.337 99.4498 112.564 99.2164C112.82 98.9527 113.151 98.606 113.354 98.3882C113.452 98.2829 113.558 98.1688 113.59 98.1347C113.818 97.8909 114.363 97.2892 114.476 97.1583C114.499 97.1311 114.521 97.106 114.525 97.1027C114.557 97.0752 115.292 96.2251 115.502 95.9728C115.552 95.9132 115.574 95.8872 115.623 95.8306C115.637 95.8141 115.674 95.7692 115.706 95.7308C115.781 95.6391 116.053 95.3111 116.079 95.2794C116.107 95.2467 116.637 94.5881 116.685 94.5271C116.705 94.5009 116.747 94.4477 116.778 94.4087C117.099 94.0029 117.604 93.3431 117.904 92.9368C117.952 92.8725 118.028 92.7696 118.073 92.7085C118.145 92.6128 118.53 92.0793 118.584 92.002C118.594 91.9875 118.641 91.9206 118.689 91.8537C118.736 91.7868 118.8 91.6959 118.831 91.6517C118.862 91.6075 118.917 91.5295 118.953 91.4786C119.036 91.3613 119.864 90.1339 119.949 90.0015C119.984 89.9471 120.049 89.8469 120.093 89.779C120.212 89.5964 120.423 89.2642 120.506 89.1301C120.546 89.0655 120.592 88.9932 120.608 88.9693C120.687 88.848 121.159 88.0699 121.357 87.7334C121.395 87.6688 121.442 87.591 121.461 87.5603C121.479 87.5296 121.517 87.4657 121.544 87.4182C121.571 87.3706 121.644 87.2434 121.707 87.1356C121.77 87.028 121.821 86.9374 121.821 86.9346C121.821 86.9317 121.834 86.9086 121.85 86.8833C121.866 86.8579 121.896 86.8066 121.916 86.7691C121.937 86.7319 122.007 86.6066 122.072 86.4911C122.137 86.3755 122.214 86.2365 122.244 86.1821C122.274 86.1277 122.31 86.061 122.326 86.0338C122.665 85.4187 123.245 84.2989 123.561 83.6482C123.812 83.1302 123.913 82.9222 123.913 82.9183C123.913 82.9162 123.941 82.8543 123.976 82.7809C124.09 82.5409 124.249 82.1952 124.375 81.9116C124.443 81.7586 124.507 81.6167 124.516 81.5962C124.755 81.0771 125.474 79.3266 125.686 78.7472C125.695 78.7234 125.751 78.5732 125.811 78.4134C126.105 77.6292 126.43 76.6887 126.626 76.0525C126.655 75.9608 126.683 75.8718 126.689 75.8548C126.704 75.8106 126.78 75.5651 126.831 75.3913C126.855 75.3097 126.903 75.1484 126.937 75.0328C127.098 74.4898 127.392 73.3748 127.547 72.7151C128.413 69.0287 128.903 65.2286 129.117 60.5338C129.164 59.5053 129.16 57.3344 129.111 56.4301C129.107 56.3688 129.099 56.2075 129.092 56.0716C129.073 55.6993 129.017 54.8854 128.992 54.6131C128.986 54.5382 128.966 54.3213 128.948 54.131C128.818 52.7113 128.592 51.0748 128.332 49.6688C128.162 48.7519 127.957 47.7648 127.791 47.0731C127.767 46.9711 127.733 46.8279 127.716 46.7552C127.523 45.9333 127.148 44.5524 126.89 43.711C126.791 43.3887 126.691 43.0649 126.646 42.9261C126.621 42.8479 126.583 42.7282 126.562 42.6603C126.508 42.4889 126.131 41.3731 126.061 41.1771C126.007 41.0266 125.968 40.9189 125.898 40.7259C125.805 40.4665 125.662 40.0788 125.637 40.0152C125.621 39.9743 125.565 39.827 125.512 39.6875C125.416 39.4328 125.013 38.4213 124.944 38.26C124.869 38.0834 124.859 38.059 124.796 37.9077C124.629 37.5094 124.411 37.0079 124.254 36.6619C124.237 36.626 124.224 36.5943 124.224 36.5914C124.224 36.5886 124.207 36.5512 124.187 36.5084C124.167 36.4656 124.087 36.2915 124.009 36.1215C123.68 35.4055 123.001 34.0246 122.689 33.4393C122.646 33.3577 122.573 33.2215 122.528 33.1364C122.483 33.0515 122.428 32.9486 122.406 32.9079C122.384 32.867 122.337 32.7809 122.303 32.7162C122.216 32.553 121.926 32.0306 121.799 31.8076C121.741 31.7057 121.679 31.5973 121.662 31.5666C121.596 31.4496 121.429 31.1611 121.379 31.0785C121.351 31.0309 121.305 30.9529 121.277 30.9054C121.031 30.4854 120.537 29.6769 120.329 29.3541C120.305 29.3167 120.273 29.2666 120.258 29.2429C119.791 28.5127 119.227 27.6661 118.904 27.2091C118.885 27.1822 118.823 27.0949 118.767 27.015C118.711 26.9351 118.622 26.8107 118.571 26.7383C118.52 26.666 118.456 26.5756 118.429 26.5375C118.402 26.4992 118.349 26.4262 118.312 26.3751C118.24 26.2791 118.223 26.2547 118.095 26.0785C117.807 25.6803 117.127 24.7875 116.809 24.3907C116.775 24.3479 116.715 24.2722 116.676 24.2223C116.54 24.05 116.02 23.4074 116.007 23.3963C116.003 23.3928 115.978 23.3623 115.95 23.3284C115.923 23.2944 115.895 23.2604 115.888 23.2532C115.881 23.2457 115.856 23.2154 115.832 23.1859C115.743 23.0759 115.265 22.5109 115.247 22.4939C115.243 22.4906 115.209 22.4516 115.172 22.4074C115.063 22.2799 115.062 22.2782 114.828 22.0119C114.573 21.7206 114.286 21.3978 114.195 21.3001C114.163 21.2656 113.981 21.0665 113.964 21.0476C113.931 21.01 113.736 20.7976 113.658 20.7146C113.617 20.6701 113.541 20.5892 113.491 20.5347C113.44 20.4803 113.362 20.397 113.316 20.3494C113.271 20.3019 113.187 20.213 113.129 20.1518C112.407 19.3881 111.454 18.4458 110.472 17.5244C110.283 17.3478 109.862 16.9631 109.631 16.7577C109.559 16.6936 109.494 16.6356 109.487 16.6289C109.471 16.614 109.3 16.4636 109.27 16.4373C109.231 16.4035 109.067 16.2583 109.053 16.2454C109.046 16.2385 108.967 16.1696 108.878 16.0923C108.588 15.8409 108.53 15.7912 108.392 15.6751C108.358 15.6468 108.316 15.6113 108.299 15.5962C108.282 15.5812 108.203 15.5154 108.125 15.45C108.046 15.3846 107.979 15.328 107.975 15.3241C107.972 15.3203 107.863 15.2293 107.732 15.1221C107.602 15.0148 107.484 14.9173 107.47 14.9053C107.456 14.8933 107.383 14.8343 107.308 14.7743C107.176 14.6679 107.079 14.5899 106.968 14.4984C106.938 14.4736 106.901 14.4454 106.887 14.4356C106.873 14.4258 106.858 14.4146 106.855 14.4107C106.851 14.4068 106.813 14.3758 106.769 14.342C106.726 14.3081 106.639 14.2392 106.576 14.189C106.514 14.1387 106.434 14.0763 106.4 14.0503C106.366 14.0243 106.304 13.9764 106.262 13.9439C106.185 13.8843 105.728 13.533 105.566 13.4099C105.479 13.3434 105.108 13.0684 104.757 12.809C104.579 12.6777 104.41 12.557 104.074 12.319C103.991 12.26 103.908 12.2016 103.892 12.1892C103.874 12.1768 103.743 12.0849 103.599 11.9849C103.455 11.8849 103.315 11.7876 103.288 11.7686C102.869 11.4741 101.762 10.7454 101.146 10.3582C100.968 10.2463 100.794 10.1369 100.76 10.1151C100.726 10.0934 100.608 10.0211 100.498 9.95444C100.389 9.88782 100.28 9.82059 100.256 9.80503C100.232 9.78947 100.131 9.72834 100.032 9.66917C99.9322 9.61 99.753 9.50316 99.633 9.43176C99.5131 9.36035 99.362 9.27109 99.2969 9.2334C99.2318 9.19571 99.1309 9.13712 99.0728 9.10316C98.8033 8.946 98.1511 8.5759 98.1436 8.5759C98.1408 8.5759 98.1176 8.56294 98.0921 8.54708C98.0664 8.53123 98.0147 8.50155 97.977 8.48115C97.9393 8.46074 97.8638 8.419 97.809 8.38839C97.7542 8.35777 97.6645 8.30882 97.6098 8.27964C97.555 8.25048 97.4681 8.20311 97.4168 8.1744C97.3655 8.14569 97.2365 8.07621 97.1304 8.02002C97.0243 7.96381 96.8982 7.89703 96.8502 7.87161C96.3097 7.58497 95.6969 7.27141 95.269 7.06243C94.7171 6.79284 94.2141 6.54876 94.2106 6.54876C94.2085 6.54876 94.1378 6.51615 94.0531 6.4763C93.9685 6.43644 93.8489 6.38015 93.7873 6.35123C93.6185 6.27201 92.8956 5.9431 92.8902 5.9431C92.8876 5.9431 92.8316 5.91806 92.7656 5.88748C92.6996 5.85688 92.6434 5.83184 92.6408 5.83184C92.638 5.83184 92.5944 5.81287 92.5437 5.78967C92.4931 5.76647 92.3516 5.70459 92.2292 5.65218C92.1069 5.59976 91.9788 5.54437 91.9446 5.52907C91.9104 5.51379 91.8262 5.47796 91.7578 5.44945C91.6892 5.42093 91.58 5.37479 91.515 5.3469C91.4499 5.31898 91.3658 5.28372 91.3283 5.26856C91.2906 5.25338 91.1702 5.2039 91.0605 5.15857C90.8019 5.05158 89.9526 4.71194 89.7843 4.64814C89.7124 4.62088 89.5639 4.56424 89.4543 4.52228C87.9683 3.95317 86.2344 3.36501 84.6483 2.8919C84.284 2.78326 83.4408 2.54268 83.1914 2.47623C83.123 2.45797 83.0418 2.43536 83.0109 2.42595C82.7596 2.34924 81.1434 1.94156 80.639 1.82762C80.5774 1.81369 80.4793 1.79113 80.4212 1.77749C79.5838 1.58126 78.4802 1.35313 77.3457 1.14183C76.421 0.969585 75.1279 0.764634 74.071 0.622833C71.4509 0.271247 68.9383 0.074936 66.2271 0.00995617C65.653 -0.00378885 63.5662 -0.00315846 62.9772 0.0109574ZM28.932 88.4197C28.3056 88.4949 27.7257 88.7371 27.189 89.1478C27.0005 89.2921 26.6217 89.6563 26.4878 89.8223C26.1641 90.2233 25.966 90.5287 25.7302 90.9903C25.3082 91.8159 25.075 92.6147 24.9743 93.5798C24.9519 93.7928 24.9523 94.7064 24.9746 94.9149C25.1244 96.3095 25.607 97.4243 26.4084 98.2272C26.7353 98.5549 27.0696 98.7971 27.475 99.0007C28.3627 99.4462 29.5049 99.5954 30.5914 99.4077C31.1614 99.3093 31.7894 99.1007 32.3851 98.8117C32.5565 98.7285 32.654 98.6776 32.8769 98.5552C33.2403 98.3556 33.7461 98.0088 34.0873 97.7253C35.1499 96.8425 35.7917 95.8419 35.9531 94.8159C35.9803 94.642 35.9918 94.0672 35.9718 93.8683C35.8398 92.5518 35.1069 91.3214 33.8403 90.2895C33.0993 89.6858 32.2264 89.1932 31.2769 88.8427C30.3083 88.485 29.5408 88.3466 28.932 88.4197ZM54.386 93.1596C53.4147 93.2882 52.4249 93.5946 51.5098 94.0496C51.4105 94.0989 51.2873 94.1629 51.236 94.1918C51.1845 94.2207 51.121 94.2564 51.0944 94.2712C50.1226 94.8128 49.243 95.6104 48.6935 96.4476C48.5309 96.6954 48.3551 97.0173 48.2615 97.2386C48.1303 97.5487 48.0558 97.7653 47.9858 98.0392C47.8367 98.6225 47.8161 99.1132 47.9188 99.6387C48.0561 100.341 48.4298 101.057 49.014 101.734C49.1419 101.883 49.6186 102.346 49.7854 102.484C50.6769 103.222 51.754 103.78 52.811 104.05C53.728 104.284 54.4837 104.293 55.3323 104.081C55.679 103.994 55.9727 103.885 56.2974 103.722C56.7414 103.499 57.0678 103.266 57.4186 102.918C57.9053 102.437 58.2705 101.867 58.5346 101.176C58.7103 100.716 58.8225 100.237 58.8889 99.6614C58.9152 99.4327 58.9255 98.7432 58.9065 98.484C58.8211 97.3183 58.4551 96.1938 57.8376 95.1992C57.7933 95.1278 57.7259 95.0249 57.6879 94.9705C57.65 94.9161 57.5969 94.8398 57.5701 94.8012C57.5432 94.7624 57.4699 94.6671 57.4072 94.5893C56.73 93.7479 55.956 93.2601 55.1294 93.1538C54.9327 93.1285 54.6009 93.1311 54.386 93.1596Z" fill="url(#paint0_linear_31_3)"/>
<defs>
<linearGradient id="paint0_linear_31_3" x1="64.5751" y1="0" x2="64.5751" y2="118.954" gradientUnits="userSpaceOnUse">
<stop stop-color="#00A845"/>
<stop offset="1" stop-color="#286E45"/>
</linearGradient>
</defs>
</svg>
